<?xml version="1.0" encoding="UTF-8" standalone="no"?>
<!DOCTYPE svg PUBLIC "-//W3C//DTD SVG 1.1//EN"
 "http://www.w3.org/Graphics/SVG/1.1/DTD/svg11.dtd">
<!-- Generated by graphviz version 2.43.0 (0)
 -->
<!-- Title: AST Pages: 1 -->
<svg width="2695pt" height="404pt"
 viewBox="0.00 0.00 2694.50 404.00" xmlns="http://www.w3.org/2000/svg" xmlns:xlink="http://www.w3.org/1999/xlink">
<g id="graph0" class="graph" transform="scale(1 1) rotate(0) translate(4 400)">
<title>AST</title>
<polygon fill="white" stroke="transparent" points="-4,4 -4,-400 2690.5,-400 2690.5,4 -4,4"/>
<!-- 0x5555690a28b0 -->
<g id="node1" class="node">
<title>0x5555690a28b0</title>
<polygon fill="none" stroke="black" points="1367,-396 1293,-396 1293,-360 1367,-360 1367,-396"/>
<text text-anchor="middle" x="1330" y="-374.3" font-family="Courier,monospace" font-size="14.00">PROGRAM</text>
</g>
<!-- 0x5555690a2d80 -->
<g id="node2" class="node">
<title>0x5555690a2d80</title>
<polygon fill="none" stroke="black" points="351,-324 211,-324 211,-288 351,-288 351,-324"/>
<text text-anchor="middle" x="281" y="-302.3" font-family="Courier,monospace" font-size="14.00">STRUCT: Address</text>
</g>
<!-- 0x5555690a28b0&#45;&gt;0x5555690a2d80 -->
<g id="edge1" class="edge">
<title>0x5555690a28b0&#45;&gt;0x5555690a2d80</title>
<path fill="none" stroke="black" d="M1292.97,-374.53C1142.28,-364.47 573.07,-326.49 361.15,-312.35"/>
<polygon fill="black" stroke="black" points="361.24,-308.85 351.02,-311.67 360.77,-315.83 361.24,-308.85"/>
</g>
<!-- 0x5555690a49f0 -->
<g id="node6" class="node">
<title>0x5555690a49f0</title>
<polygon fill="none" stroke="black" points="1388,-324 1272,-324 1272,-288 1388,-288 1388,-324"/>
<text text-anchor="middle" x="1330" y="-302.3" font-family="Courier,monospace" font-size="14.00">STRUCT: User</text>
</g>
<!-- 0x5555690a28b0&#45;&gt;0x5555690a49f0 -->
<g id="edge5" class="edge">
<title>0x5555690a28b0&#45;&gt;0x5555690a49f0</title>
<path fill="none" stroke="black" d="M1330,-359.7C1330,-351.98 1330,-342.71 1330,-334.11"/>
<polygon fill="black" stroke="black" points="1333.5,-334.1 1330,-324.1 1326.5,-334.1 1333.5,-334.1"/>
</g>
<!-- 0x5555690993e0 -->
<g id="node21" class="node">
<title>0x5555690993e0</title>
<polygon fill="none" stroke="black" points="2598.5,-324 2449.5,-324 2449.5,-288 2598.5,-288 2598.5,-324"/>
<text text-anchor="middle" x="2524" y="-302.3" font-family="Courier,monospace" font-size="14.00">FUNCTION: main()</text>
</g>
<!-- 0x5555690a28b0&#45;&gt;0x5555690993e0 -->
<g id="edge20" class="edge">
<title>0x5555690a28b0&#45;&gt;0x5555690993e0</title>
<path fill="none" stroke="black" d="M1367.04,-374.83C1531.87,-365.17 2200.94,-325.94 2439.23,-311.97"/>
<polygon fill="black" stroke="black" points="2439.45,-315.46 2449.22,-311.38 2439.04,-308.48 2439.45,-315.46"/>
</g>
<!-- 0x5555690a2d80_street: string -->
<g id="node3" class="node">
<title>0x5555690a2d80_street: string</title>
<polygon fill="none" stroke="black" points="132,-252 0,-252 0,-216 132,-216 132,-252"/>
<text text-anchor="middle" x="66" y="-230.3" font-family="Courier,monospace" font-size="14.00">street: string</text>
</g>
<!-- 0x5555690a2d80&#45;&gt;0x5555690a2d80_street: string -->
<g id="edge2" class="edge">
<title>0x5555690a2d80&#45;&gt;0x5555690a2d80_street: string</title>
<path fill="none" stroke="black" d="M228.68,-287.97C198.38,-278.1 160.05,-265.62 128.21,-255.25"/>
<polygon fill="black" stroke="black" points="129.15,-251.88 118.55,-252.11 126.98,-258.53 129.15,-251.88"/>
</g>
<!-- 0x5555690a2d80_city: string -->
<g id="node4" class="node">
<title>0x5555690a2d80_city: string</title>
<polygon fill="none" stroke="black" points="266,-252 150,-252 150,-216 266,-216 266,-252"/>
<text text-anchor="middle" x="208" y="-230.3" font-family="Courier,monospace" font-size="14.00">city: string</text>
</g>
<!-- 0x5555690a2d80&#45;&gt;0x5555690a2d80_city: string -->
<g id="edge3" class="edge">
<title>0x5555690a2d80&#45;&gt;0x5555690a2d80_city: string</title>
<path fill="none" stroke="black" d="M262.96,-287.7C253.94,-279.05 242.88,-268.45 233.06,-259.03"/>
<polygon fill="black" stroke="black" points="235.48,-256.5 225.84,-252.1 230.63,-261.55 235.48,-256.5"/>
</g>
<!-- 0x5555690a2d80_country: string -->
<g id="node5" class="node">
<title>0x5555690a2d80_country: string</title>
<polygon fill="none" stroke="black" points="424,-252 284,-252 284,-216 424,-216 424,-252"/>
<text text-anchor="middle" x="354" y="-230.3" font-family="Courier,monospace" font-size="14.00">country: string</text>
</g>
<!-- 0x5555690a2d80&#45;&gt;0x5555690a2d80_country: string -->
<g id="edge4" class="edge">
<title>0x5555690a2d80&#45;&gt;0x5555690a2d80_country: string</title>
<path fill="none" stroke="black" d="M299.04,-287.7C308.06,-279.05 319.12,-268.45 328.94,-259.03"/>
<polygon fill="black" stroke="black" points="331.37,-261.55 336.16,-252.1 326.52,-256.5 331.37,-261.55"/>
</g>
<!-- 0x5555690a49f0_id: long -->
<g id="node7" class="node">
<title>0x5555690a49f0_id: long</title>
<polygon fill="none" stroke="black" points="525.5,-252 442.5,-252 442.5,-216 525.5,-216 525.5,-252"/>
<text text-anchor="middle" x="484" y="-230.3" font-family="Courier,monospace" font-size="14.00">id: long</text>
</g>
<!-- 0x5555690a49f0&#45;&gt;0x5555690a49f0_id: long -->
<g id="edge6" class="edge">
<title>0x5555690a49f0&#45;&gt;0x5555690a49f0_id: long</title>
<path fill="none" stroke="black" d="M1271.72,-303.09C1116.39,-297.71 694.01,-280.97 535.57,-251.95"/>
<polygon fill="black" stroke="black" points="536,-248.47 525.52,-250.02 534.68,-255.34 536,-248.47"/>
</g>
<!-- 0x5555690a49f0_age: int -->
<g id="node8" class="node">
<title>0x5555690a49f0_age: int</title>
<polygon fill="none" stroke="black" points="626.5,-252 543.5,-252 543.5,-216 626.5,-216 626.5,-252"/>
<text text-anchor="middle" x="585" y="-230.3" font-family="Courier,monospace" font-size="14.00">age: int</text>
</g>
<!-- 0x5555690a49f0&#45;&gt;0x5555690a49f0_age: int -->
<g id="edge7" class="edge">
<title>0x5555690a49f0&#45;&gt;0x5555690a49f0_age: int</title>
<path fill="none" stroke="black" d="M1271.76,-305.35C1153.28,-305.02 875.89,-298.99 636.46,-251.75"/>
<polygon fill="black" stroke="black" points="637.01,-248.3 626.52,-249.76 635.64,-255.16 637.01,-248.3"/>
</g>
<!-- 0x5555690a49f0_name: string -->
<g id="node9" class="node">
<title>0x5555690a49f0_name: string</title>
<polygon fill="none" stroke="black" points="761,-252 645,-252 645,-216 761,-216 761,-252"/>
<text text-anchor="middle" x="703" y="-230.3" font-family="Courier,monospace" font-size="14.00">name: string</text>
</g>
<!-- 0x5555690a49f0&#45;&gt;0x5555690a49f0_name: string -->
<g id="edge8" class="edge">
<title>0x5555690a49f0&#45;&gt;0x5555690a49f0_name: string</title>
<path fill="none" stroke="black" d="M1271.97,-302.46C1171.65,-297.42 959.26,-283.93 771.41,-252.1"/>
<polygon fill="black" stroke="black" points="771.8,-248.61 761.35,-250.37 770.62,-255.51 771.8,-248.61"/>
</g>
<!-- 0x5555690a49f0_password: string -->
<g id="node10" class="node">
<title>0x5555690a49f0_password: string</title>
<polygon fill="none" stroke="black" points="928.5,-252 779.5,-252 779.5,-216 928.5,-216 928.5,-252"/>
<text text-anchor="middle" x="854" y="-230.3" font-family="Courier,monospace" font-size="14.00">password: string</text>
</g>
<!-- 0x5555690a49f0&#45;&gt;0x5555690a49f0_password: string -->
<g id="edge9" class="edge">
<title>0x5555690a49f0&#45;&gt;0x5555690a49f0_password: string</title>
<path fill="none" stroke="black" d="M1271.88,-298.41C1197.04,-289.66 1062.76,-273 938.67,-252.23"/>
<polygon fill="black" stroke="black" points="939.05,-248.74 928.61,-250.53 937.89,-255.65 939.05,-248.74"/>
</g>
<!-- 0x5555690a49f0_bio: string -->
<g id="node11" class="node">
<title>0x5555690a49f0_bio: string</title>
<polygon fill="none" stroke="black" points="1053.5,-252 946.5,-252 946.5,-216 1053.5,-216 1053.5,-252"/>
<text text-anchor="middle" x="1000" y="-230.3" font-family="Courier,monospace" font-size="14.00">bio: string</text>
</g>
<!-- 0x5555690a49f0&#45;&gt;0x5555690a49f0_bio: string -->
<g id="edge10" class="edge">
<title>0x5555690a49f0&#45;&gt;0x5555690a49f0_bio: string</title>
<path fill="none" stroke="black" d="M1271.97,-294.78C1219.75,-285.29 1140.71,-270.24 1063.59,-252.3"/>
<polygon fill="black" stroke="black" points="1064.24,-248.86 1053.71,-249.98 1062.64,-255.67 1064.24,-248.86"/>
</g>
<!-- 0x5555690a49f0_admin: bool -->
<g id="node12" class="node">
<title>0x5555690a49f0_admin: bool</title>
<polygon fill="none" stroke="black" points="1178.5,-252 1071.5,-252 1071.5,-216 1178.5,-216 1178.5,-252"/>
<text text-anchor="middle" x="1125" y="-230.3" font-family="Courier,monospace" font-size="14.00">admin: bool</text>
</g>
<!-- 0x5555690a49f0&#45;&gt;0x5555690a49f0_admin: bool -->
<g id="edge11" class="edge">
<title>0x5555690a49f0&#45;&gt;0x5555690a49f0_admin: bool</title>
<path fill="none" stroke="black" d="M1280.11,-287.97C1251.35,-278.14 1214.99,-265.73 1184.71,-255.39"/>
<polygon fill="black" stroke="black" points="1185.7,-252.03 1175.11,-252.11 1183.44,-258.65 1185.7,-252.03"/>
</g>
<!-- 0x5555690a49f0_height: float -->
<g id="node13" class="node">
<title>0x5555690a49f0_height: float</title>
<polygon fill="none" stroke="black" points="1321,-252 1197,-252 1197,-216 1321,-216 1321,-252"/>
<text text-anchor="middle" x="1259" y="-230.3" font-family="Courier,monospace" font-size="14.00">height: float</text>
</g>
<!-- 0x5555690a49f0&#45;&gt;0x5555690a49f0_height: float -->
<g id="edge12" class="edge">
<title>0x5555690a49f0&#45;&gt;0x5555690a49f0_height: float</title>
<path fill="none" stroke="black" d="M1312.45,-287.7C1303.77,-279.14 1293.14,-268.66 1283.65,-259.3"/>
<polygon fill="black" stroke="black" points="1285.93,-256.63 1276.35,-252.1 1281.01,-261.62 1285.93,-256.63"/>
</g>
<!-- 0x5555690a49f0_weight: float -->
<g id="node14" class="node">
<title>0x5555690a49f0_weight: float</title>
<polygon fill="none" stroke="black" points="1463,-252 1339,-252 1339,-216 1463,-216 1463,-252"/>
<text text-anchor="middle" x="1401" y="-230.3" font-family="Courier,monospace" font-size="14.00">weight: float</text>
</g>
<!-- 0x5555690a49f0&#45;&gt;0x5555690a49f0_weight: float -->
<g id="edge13" class="edge">
<title>0x5555690a49f0&#45;&gt;0x5555690a49f0_weight: float</title>
<path fill="none" stroke="black" d="M1347.55,-287.7C1356.23,-279.14 1366.86,-268.66 1376.35,-259.3"/>
<polygon fill="black" stroke="black" points="1378.99,-261.62 1383.65,-252.1 1374.07,-256.63 1378.99,-261.62"/>
</g>
<!-- 0x5555690a49f0_balance: double -->
<g id="node15" class="node">
<title>0x5555690a49f0_balance: double</title>
<polygon fill="none" stroke="black" points="1621,-252 1481,-252 1481,-216 1621,-216 1621,-252"/>
<text text-anchor="middle" x="1551" y="-230.3" font-family="Courier,monospace" font-size="14.00">balance: double</text>
</g>
<!-- 0x5555690a49f0&#45;&gt;0x5555690a49f0_balance: double -->
<g id="edge14" class="edge">
<title>0x5555690a49f0&#45;&gt;0x5555690a49f0_balance: double</title>
<path fill="none" stroke="black" d="M1383.78,-287.97C1414.93,-278.1 1454.32,-265.62 1487.05,-255.25"/>
<polygon fill="black" stroke="black" points="1488.5,-258.47 1496.98,-252.11 1486.39,-251.79 1488.5,-258.47"/>
</g>
<!-- 0x5555690a49f0_gender: char -->
<g id="node16" class="node">
<title>0x5555690a49f0_gender: char</title>
<polygon fill="none" stroke="black" points="1755,-252 1639,-252 1639,-216 1755,-216 1755,-252"/>
<text text-anchor="middle" x="1697" y="-230.3" font-family="Courier,monospace" font-size="14.00">gender: char</text>
</g>
<!-- 0x5555690a49f0&#45;&gt;0x5555690a49f0_gender: char -->
<g id="edge15" class="edge">
<title>0x5555690a49f0&#45;&gt;0x5555690a49f0_gender: char</title>
<path fill="none" stroke="black" d="M1388.04,-296.05C1446.52,-286.73 1539.54,-271.12 1629.17,-252.1"/>
<polygon fill="black" stroke="black" points="1629.91,-255.52 1638.96,-250.01 1628.45,-248.67 1629.91,-255.52"/>
</g>
<!-- 0x5555690a49f0_version: int -->
<g id="node17" class="node">
<title>0x5555690a49f0_version: int</title>
<polygon fill="none" stroke="black" points="1889,-252 1773,-252 1773,-216 1889,-216 1889,-252"/>
<text text-anchor="middle" x="1831" y="-230.3" font-family="Courier,monospace" font-size="14.00">version: int</text>
</g>
<!-- 0x5555690a49f0&#45;&gt;0x5555690a49f0_version: int -->
<g id="edge16" class="edge">
<title>0x5555690a49f0&#45;&gt;0x5555690a49f0_version: int</title>
<path fill="none" stroke="black" d="M1388.27,-300.25C1469.96,-293.08 1623.23,-277.7 1762.96,-252.06"/>
<polygon fill="black" stroke="black" points="1763.8,-255.46 1773,-250.2 1762.52,-248.58 1763.8,-255.46"/>
</g>
<!-- 0x5555690a49f0_permission: byte -->
<g id="node18" class="node">
<title>0x5555690a49f0_permission: byte</title>
<polygon fill="none" stroke="black" points="2056.5,-252 1907.5,-252 1907.5,-216 2056.5,-216 2056.5,-252"/>
<text text-anchor="middle" x="1982" y="-230.3" font-family="Courier,monospace" font-size="14.00">permission: byte</text>
</g>
<!-- 0x5555690a49f0&#45;&gt;0x5555690a49f0_permission: byte -->
<g id="edge17" class="edge">
<title>0x5555690a49f0&#45;&gt;0x5555690a49f0_permission: byte</title>
<path fill="none" stroke="black" d="M1388.3,-301.62C1489.71,-295.29 1705.29,-279.84 1897.42,-251.99"/>
<polygon fill="black" stroke="black" points="1898.03,-255.44 1907.42,-250.52 1897.02,-248.51 1898.03,-255.44"/>
</g>
<!-- 0x5555690a49f0_supervisor: option&lt;User&gt; -->
<g id="node19" class="node">
<title>0x5555690a49f0_supervisor: option&lt;User&gt;</title>
<polygon fill="none" stroke="black" points="2289.5,-252 2074.5,-252 2074.5,-216 2289.5,-216 2289.5,-252"/>
<text text-anchor="middle" x="2182" y="-230.3" font-family="Courier,monospace" font-size="14.00">supervisor: option&lt;User&gt;</text>
</g>
<!-- 0x5555690a49f0&#45;&gt;0x5555690a49f0_supervisor: option&lt;User&gt; -->
<g id="edge18" class="edge">
<title>0x5555690a49f0&#45;&gt;0x5555690a49f0_supervisor: option&lt;User&gt;</title>
<path fill="none" stroke="black" d="M1388.25,-302.23C1511.09,-296.09 1805.9,-279.71 2063.97,-252.06"/>
<polygon fill="black" stroke="black" points="2064.73,-255.5 2074.3,-250.95 2063.98,-248.54 2064.73,-255.5"/>
</g>
<!-- 0x5555690a49f0_address: Address -->
<g id="node20" class="node">
<title>0x5555690a49f0_address: Address</title>
<polygon fill="none" stroke="black" points="2456.5,-252 2307.5,-252 2307.5,-216 2456.5,-216 2456.5,-252"/>
<text text-anchor="middle" x="2382" y="-230.3" font-family="Courier,monospace" font-size="14.00">address: Address</text>
</g>
<!-- 0x5555690a49f0&#45;&gt;0x5555690a49f0_address: Address -->
<g id="edge19" class="edge">
<title>0x5555690a49f0&#45;&gt;0x5555690a49f0_address: Address</title>
<path fill="none" stroke="black" d="M1388.09,-304.75C1537.45,-303.47 1947.02,-296.02 2297.35,-251.95"/>
<polygon fill="black" stroke="black" points="2297.96,-255.41 2307.44,-250.67 2297.08,-248.46 2297.96,-255.41"/>
</g>
<!-- 0x5555690a2950 -->
<g id="node22" class="node">
<title>0x5555690a2950</title>
<polygon fill="none" stroke="black" points="2573.5,-252 2474.5,-252 2474.5,-216 2573.5,-216 2573.5,-252"/>
<text text-anchor="middle" x="2524" y="-230.3" font-family="Courier,monospace" font-size="14.00">ATTR: user</text>
</g>
<!-- 0x5555690993e0&#45;&gt;0x5555690a2950 -->
<g id="edge21" class="edge">
<title>0x5555690993e0&#45;&gt;0x5555690a2950</title>
<path fill="none" stroke="black" d="M2524,-287.7C2524,-279.98 2524,-270.71 2524,-262.11"/>
<polygon fill="black" stroke="black" points="2527.5,-262.1 2524,-252.1 2520.5,-262.1 2527.5,-262.1"/>
</g>
<!-- 0x5555690a3050 -->
<g id="node30" class="node">
<title>0x5555690a3050</title>
<polygon fill="none" stroke="black" points="2658,-252 2592,-252 2592,-216 2658,-216 2658,-252"/>
<text text-anchor="middle" x="2625" y="-230.3" font-family="Courier,monospace" font-size="14.00">RETURN</text>
</g>
<!-- 0x5555690993e0&#45;&gt;0x5555690a3050 -->
<g id="edge29" class="edge">
<title>0x5555690993e0&#45;&gt;0x5555690a3050</title>
<path fill="none" stroke="black" d="M2548.71,-287.88C2561.67,-278.89 2577.73,-267.76 2591.77,-258.03"/>
<polygon fill="black" stroke="black" points="2593.97,-260.76 2600.2,-252.19 2589.98,-255.01 2593.97,-260.76"/>
</g>
<!-- 0x5555690a4b00 -->
<g id="node23" class="node">
<title>0x5555690a4b00</title>
<polygon fill="none" stroke="black" points="2565.5,-180 2482.5,-180 2482.5,-144 2565.5,-144 2565.5,-180"/>
<text text-anchor="middle" x="2524" y="-158.3" font-family="Courier,monospace" font-size="14.00">new User</text>
</g>
<!-- 0x5555690a2950&#45;&gt;0x5555690a4b00 -->
<g id="edge22" class="edge">
<title>0x5555690a2950&#45;&gt;0x5555690a4b00</title>
<path fill="none" stroke="black" d="M2524,-215.7C2524,-207.98 2524,-198.71 2524,-190.11"/>
<polygon fill="black" stroke="black" points="2527.5,-190.1 2524,-180.1 2520.5,-190.1 2527.5,-190.1"/>
</g>
<!-- 0x5555690a4b00_id -->
<g id="node24" class="node">
<title>0x5555690a4b00_id</title>
<polygon fill="none" stroke="black" points="2471,-108 2417,-108 2417,-72 2471,-72 2471,-108"/>
<text text-anchor="middle" x="2444" y="-86.3" font-family="Courier,monospace" font-size="14.00">id</text>
</g>
<!-- 0x5555690a4b00&#45;&gt;0x5555690a4b00_id -->
<g id="edge23" class="edge">
<title>0x5555690a4b00&#45;&gt;0x5555690a4b00_id</title>
<path fill="none" stroke="black" d="M2504.22,-143.7C2494.25,-134.97 2481.99,-124.24 2471.14,-114.75"/>
<polygon fill="black" stroke="black" points="2473.38,-112.06 2463.55,-108.1 2468.77,-117.32 2473.38,-112.06"/>
</g>
<!-- 0x5555690a4b00_age -->
<g id="node26" class="node">
<title>0x5555690a4b00_age</title>
<polygon fill="none" stroke="black" points="2551,-108 2497,-108 2497,-72 2551,-72 2551,-108"/>
<text text-anchor="middle" x="2524" y="-86.3" font-family="Courier,monospace" font-size="14.00">age</text>
</g>
<!-- 0x5555690a4b00&#45;&gt;0x5555690a4b00_age -->
<g id="edge25" class="edge">
<title>0x5555690a4b00&#45;&gt;0x5555690a4b00_age</title>
<path fill="none" stroke="black" d="M2524,-143.7C2524,-135.98 2524,-126.71 2524,-118.11"/>
<polygon fill="black" stroke="black" points="2527.5,-118.1 2524,-108.1 2520.5,-118.1 2527.5,-118.1"/>
</g>
<!-- 0x5555690a4b00_gender -->
<g id="node28" class="node">
<title>0x5555690a4b00_gender</title>
<polygon fill="none" stroke="black" points="2650,-108 2584,-108 2584,-72 2650,-72 2650,-108"/>
<text text-anchor="middle" x="2617" y="-86.3" font-family="Courier,monospace" font-size="14.00">gender</text>
</g>
<!-- 0x5555690a4b00&#45;&gt;0x5555690a4b00_gender -->
<g id="edge27" class="edge">
<title>0x5555690a4b00&#45;&gt;0x5555690a4b00_gender</title>
<path fill="none" stroke="black" d="M2546.99,-143.7C2558.81,-134.8 2573.39,-123.82 2586.18,-114.2"/>
<polygon fill="black" stroke="black" points="2588.39,-116.91 2594.28,-108.1 2584.18,-111.32 2588.39,-116.91"/>
</g>
<!-- 0x5555690a2900 -->
<g id="node25" class="node">
<title>0x5555690a2900</title>
<polygon fill="none" stroke="black" points="2469,-36 2403,-36 2403,0 2469,0 2469,-36"/>
<text text-anchor="middle" x="2436" y="-14.3" font-family="Courier,monospace" font-size="14.00">INT: 0</text>
</g>
<!-- 0x5555690a4b00_id&#45;&gt;0x5555690a2900 -->
<g id="edge24" class="edge">
<title>0x5555690a4b00_id&#45;&gt;0x5555690a2900</title>
<path fill="none" stroke="black" d="M2442.02,-71.7C2441.14,-63.98 2440.08,-54.71 2439.1,-46.11"/>
<polygon fill="black" stroke="black" points="2442.57,-45.64 2437.95,-36.1 2435.61,-46.44 2442.57,-45.64"/>
</g>
<!-- 0x5555690a3150 -->
<g id="node27" class="node">
<title>0x5555690a3150</title>
<polygon fill="none" stroke="black" points="2561,-36 2487,-36 2487,0 2561,0 2561,-36"/>
<text text-anchor="middle" x="2524" y="-14.3" font-family="Courier,monospace" font-size="14.00">INT: 20</text>
</g>
<!-- 0x5555690a4b00_age&#45;&gt;0x5555690a3150 -->
<g id="edge26" class="edge">
<title>0x5555690a4b00_age&#45;&gt;0x5555690a3150</title>
<path fill="none" stroke="black" d="M2524,-71.7C2524,-63.98 2524,-54.71 2524,-46.11"/>
<polygon fill="black" stroke="black" points="2527.5,-46.1 2524,-36.1 2520.5,-46.1 2527.5,-46.1"/>
</g>
<!-- 0x5555690a4680 -->
<g id="node29" class="node">
<title>0x5555690a4680</title>
<polygon fill="none" stroke="black" points="2686.5,-36 2579.5,-36 2579.5,0 2686.5,0 2686.5,-36"/>
<text text-anchor="middle" x="2633" y="-14.3" font-family="Courier,monospace" font-size="14.00">CHAR: &#39;109&#39;</text>
</g>
<!-- 0x5555690a4b00_gender&#45;&gt;0x5555690a4680 -->
<g id="edge28" class="edge">
<title>0x5555690a4b00_gender&#45;&gt;0x5555690a4680</title>
<path fill="none" stroke="black" d="M2620.96,-71.7C2622.72,-63.98 2624.84,-54.71 2626.8,-46.11"/>
<polygon fill="black" stroke="black" points="2630.27,-46.63 2629.09,-36.1 2623.45,-45.07 2630.27,-46.63"/>
</g>
<!-- 0x5555690a4c70 -->
<g id="node31" class="node">
<title>0x5555690a4c70</title>
<polygon fill="none" stroke="black" points="2658,-180 2592,-180 2592,-144 2658,-144 2658,-180"/>
<text text-anchor="middle" x="2625" y="-158.3" font-family="Courier,monospace" font-size="14.00">INT: 0</text>
</g>
<!-- 0x5555690a3050&#45;&gt;0x5555690a4c70 -->
<g id="edge30" class="edge">
<title>0x5555690a3050&#45;&gt;0x5555690a4c70</title>
<path fill="none" stroke="black" d="M2625,-215.7C2625,-207.98 2625,-198.71 2625,-190.11"/>
<polygon fill="black" stroke="black" points="2628.5,-190.1 2625,-180.1 2621.5,-190.1 2628.5,-190.1"/>
</g>
</g>
</svg>
