<?xml version="1.0" encoding="UTF-8" standalone="no"?>
<!DOCTYPE svg PUBLIC "-//W3C//DTD SVG 1.1//EN"
 "http://www.w3.org/Graphics/SVG/1.1/DTD/svg11.dtd">
<!-- Generated by graphviz version 2.43.0 (0)
 -->
<!-- Title: AST Pages: 1 -->
<svg width="1622pt" height="188pt"
 viewBox="0.00 0.00 1622.00 188.00" xmlns="http://www.w3.org/2000/svg" xmlns:xlink="http://www.w3.org/1999/xlink">
<g id="graph0" class="graph" transform="scale(1 1) rotate(0) translate(4 184)">
<title>AST</title>
<polygon fill="white" stroke="transparent" points="-4,4 -4,-184 1618,-184 1618,4 -4,4"/>
<!-- 0x555586a6f860 -->
<g id="node1" class="node">
<title>0x555586a6f860</title>
<polygon fill="none" stroke="black" points="786.5,-180 712.5,-180 712.5,-144 786.5,-144 786.5,-180"/>
<text text-anchor="middle" x="749.5" y="-158.3" font-family="Courier,monospace" font-size="14.00">PROGRAM</text>
</g>
<!-- 0x555586a6f7f0 -->
<g id="node2" class="node">
<title>0x555586a6f7f0</title>
<polygon fill="none" stroke="black" points="807.5,-108 691.5,-108 691.5,-72 807.5,-72 807.5,-108"/>
<text text-anchor="middle" x="749.5" y="-86.3" font-family="Courier,monospace" font-size="14.00">STRUCT: User</text>
</g>
<!-- 0x555586a6f860&#45;&gt;0x555586a6f7f0 -->
<g id="edge1" class="edge">
<title>0x555586a6f860&#45;&gt;0x555586a6f7f0</title>
<path fill="none" stroke="black" d="M749.5,-143.7C749.5,-135.98 749.5,-126.71 749.5,-118.11"/>
<polygon fill="black" stroke="black" points="753,-118.1 749.5,-108.1 746,-118.1 753,-118.1"/>
</g>
<!-- 0x555586a6f7f0_id: long -->
<g id="node3" class="node">
<title>0x555586a6f7f0_id: long</title>
<polygon fill="none" stroke="black" points="83,-36 0,-36 0,0 83,0 83,-36"/>
<text text-anchor="middle" x="41.5" y="-14.3" font-family="Courier,monospace" font-size="14.00">id: long</text>
</g>
<!-- 0x555586a6f7f0&#45;&gt;0x555586a6f7f0_id: long -->
<g id="edge2" class="edge">
<title>0x555586a6f7f0&#45;&gt;0x555586a6f7f0_id: long</title>
<path fill="none" stroke="black" d="M691.17,-89.11C577.21,-88.29 317.26,-81.32 93.01,-36.02"/>
<polygon fill="black" stroke="black" points="93.53,-32.56 83.03,-33.98 92.12,-39.42 93.53,-32.56"/>
</g>
<!-- 0x555586a6f7f0_age: int -->
<g id="node4" class="node">
<title>0x555586a6f7f0_age: int</title>
<polygon fill="none" stroke="black" points="184,-36 101,-36 101,0 184,0 184,-36"/>
<text text-anchor="middle" x="142.5" y="-14.3" font-family="Courier,monospace" font-size="14.00">age: int</text>
</g>
<!-- 0x555586a6f7f0&#45;&gt;0x555586a6f7f0_age: int -->
<g id="edge3" class="edge">
<title>0x555586a6f7f0&#45;&gt;0x555586a6f7f0_age: int</title>
<path fill="none" stroke="black" d="M691.22,-87.78C591.05,-84.73 379.92,-74.19 193.99,-35.79"/>
<polygon fill="black" stroke="black" points="194.54,-32.33 184.04,-33.7 193.1,-39.18 194.54,-32.33"/>
</g>
<!-- 0x555586a6f7f0_name: string -->
<g id="node5" class="node">
<title>0x555586a6f7f0_name: string</title>
<polygon fill="none" stroke="black" points="318.5,-36 202.5,-36 202.5,0 318.5,0 318.5,-36"/>
<text text-anchor="middle" x="260.5" y="-14.3" font-family="Courier,monospace" font-size="14.00">name: string</text>
</g>
<!-- 0x555586a6f7f0&#45;&gt;0x555586a6f7f0_name: string -->
<g id="edge4" class="edge">
<title>0x555586a6f7f0&#45;&gt;0x555586a6f7f0_name: string</title>
<path fill="none" stroke="black" d="M691.47,-84C611.78,-76.63 463.91,-61.14 328.64,-36.08"/>
<polygon fill="black" stroke="black" points="328.98,-32.59 318.51,-34.18 327.69,-39.47 328.98,-32.59"/>
</g>
<!-- 0x555586a6f7f0_password: string -->
<g id="node6" class="node">
<title>0x555586a6f7f0_password: string</title>
<polygon fill="none" stroke="black" points="486,-36 337,-36 337,0 486,0 486,-36"/>
<text text-anchor="middle" x="411.5" y="-14.3" font-family="Courier,monospace" font-size="14.00">password: string</text>
</g>
<!-- 0x555586a6f7f0&#45;&gt;0x555586a6f7f0_password: string -->
<g id="edge5" class="edge">
<title>0x555586a6f7f0&#45;&gt;0x555586a6f7f0_password: string</title>
<path fill="none" stroke="black" d="M691.4,-76.97C637.67,-65.84 557.17,-49.17 496.27,-36.56"/>
<polygon fill="black" stroke="black" points="496.79,-33.09 486.29,-34.49 495.37,-39.94 496.79,-33.09"/>
</g>
<!-- 0x555586a6f7f0_bio: string -->
<g id="node7" class="node">
<title>0x555586a6f7f0_bio: string</title>
<polygon fill="none" stroke="black" points="611,-36 504,-36 504,0 611,0 611,-36"/>
<text text-anchor="middle" x="557.5" y="-14.3" font-family="Courier,monospace" font-size="14.00">bio: string</text>
</g>
<!-- 0x555586a6f7f0&#45;&gt;0x555586a6f7f0_bio: string -->
<g id="edge6" class="edge">
<title>0x555586a6f7f0&#45;&gt;0x555586a6f7f0_bio: string</title>
<path fill="none" stroke="black" d="M702.53,-71.88C675.82,-62.14 642.18,-49.87 614.03,-39.61"/>
<polygon fill="black" stroke="black" points="614.91,-36.21 604.32,-36.07 612.51,-42.78 614.91,-36.21"/>
</g>
<!-- 0x555586a6f7f0_admin: bool -->
<g id="node8" class="node">
<title>0x555586a6f7f0_admin: bool</title>
<polygon fill="none" stroke="black" points="736,-36 629,-36 629,0 736,0 736,-36"/>
<text text-anchor="middle" x="682.5" y="-14.3" font-family="Courier,monospace" font-size="14.00">admin: bool</text>
</g>
<!-- 0x555586a6f7f0&#45;&gt;0x555586a6f7f0_admin: bool -->
<g id="edge7" class="edge">
<title>0x555586a6f7f0&#45;&gt;0x555586a6f7f0_admin: bool</title>
<path fill="none" stroke="black" d="M732.94,-71.7C724.82,-63.22 714.91,-52.86 706.03,-43.58"/>
<polygon fill="black" stroke="black" points="708.31,-40.91 698.87,-36.1 703.26,-45.75 708.31,-40.91"/>
</g>
<!-- 0x555586a6f7f0_height: float -->
<g id="node9" class="node">
<title>0x555586a6f7f0_height: float</title>
<polygon fill="none" stroke="black" points="878.5,-36 754.5,-36 754.5,0 878.5,0 878.5,-36"/>
<text text-anchor="middle" x="816.5" y="-14.3" font-family="Courier,monospace" font-size="14.00">height: float</text>
</g>
<!-- 0x555586a6f7f0&#45;&gt;0x555586a6f7f0_height: float -->
<g id="edge8" class="edge">
<title>0x555586a6f7f0&#45;&gt;0x555586a6f7f0_height: float</title>
<path fill="none" stroke="black" d="M766.06,-71.7C774.18,-63.22 784.09,-52.86 792.97,-43.58"/>
<polygon fill="black" stroke="black" points="795.74,-45.75 800.13,-36.1 790.69,-40.91 795.74,-45.75"/>
</g>
<!-- 0x555586a6f7f0_weight: float -->
<g id="node10" class="node">
<title>0x555586a6f7f0_weight: float</title>
<polygon fill="none" stroke="black" points="1020.5,-36 896.5,-36 896.5,0 1020.5,0 1020.5,-36"/>
<text text-anchor="middle" x="958.5" y="-14.3" font-family="Courier,monospace" font-size="14.00">weight: float</text>
</g>
<!-- 0x555586a6f7f0&#45;&gt;0x555586a6f7f0_weight: float -->
<g id="edge9" class="edge">
<title>0x555586a6f7f0&#45;&gt;0x555586a6f7f0_weight: float</title>
<path fill="none" stroke="black" d="M800.36,-71.97C829.69,-62.14 866.75,-49.73 897.62,-39.39"/>
<polygon fill="black" stroke="black" points="899.04,-42.61 907.41,-36.11 896.82,-35.97 899.04,-42.61"/>
</g>
<!-- 0x555586a6f7f0_balance: double -->
<g id="node11" class="node">
<title>0x555586a6f7f0_balance: double</title>
<polygon fill="none" stroke="black" points="1178.5,-36 1038.5,-36 1038.5,0 1178.5,0 1178.5,-36"/>
<text text-anchor="middle" x="1108.5" y="-14.3" font-family="Courier,monospace" font-size="14.00">balance: double</text>
</g>
<!-- 0x555586a6f7f0&#45;&gt;0x555586a6f7f0_balance: double -->
<g id="edge10" class="edge">
<title>0x555586a6f7f0&#45;&gt;0x555586a6f7f0_balance: double</title>
<path fill="none" stroke="black" d="M807.77,-78.41C862.25,-68.4 946.13,-52.75 1028.3,-36.22"/>
<polygon fill="black" stroke="black" points="1029.2,-39.61 1038.31,-34.2 1027.81,-32.75 1029.2,-39.61"/>
</g>
<!-- 0x555586a6f7f0_gender: char -->
<g id="node12" class="node">
<title>0x555586a6f7f0_gender: char</title>
<polygon fill="none" stroke="black" points="1312.5,-36 1196.5,-36 1196.5,0 1312.5,0 1312.5,-36"/>
<text text-anchor="middle" x="1254.5" y="-14.3" font-family="Courier,monospace" font-size="14.00">gender: char</text>
</g>
<!-- 0x555586a6f7f0&#45;&gt;0x555586a6f7f0_gender: char -->
<g id="edge11" class="edge">
<title>0x555586a6f7f0&#45;&gt;0x555586a6f7f0_gender: char</title>
<path fill="none" stroke="black" d="M807.61,-84.36C889.86,-77.25 1045.04,-61.92 1186.35,-36.08"/>
<polygon fill="black" stroke="black" points="1187.3,-39.46 1196.5,-34.2 1186.03,-32.58 1187.3,-39.46"/>
</g>
<!-- 0x555586a6f7f0_version: int -->
<g id="node13" class="node">
<title>0x555586a6f7f0_version: int</title>
<polygon fill="none" stroke="black" points="1446.5,-36 1330.5,-36 1330.5,0 1446.5,0 1446.5,-36"/>
<text text-anchor="middle" x="1388.5" y="-14.3" font-family="Courier,monospace" font-size="14.00">version: int</text>
</g>
<!-- 0x555586a6f7f0&#45;&gt;0x555586a6f7f0_version: int -->
<g id="edge12" class="edge">
<title>0x555586a6f7f0&#45;&gt;0x555586a6f7f0_version: int</title>
<path fill="none" stroke="black" d="M807.54,-86.62C909.54,-81.78 1127.63,-68.52 1320.13,-36.09"/>
<polygon fill="black" stroke="black" points="1320.88,-39.51 1330.15,-34.38 1319.7,-32.61 1320.88,-39.51"/>
</g>
<!-- 0x555586a6f7f0_permission: byte -->
<g id="node14" class="node">
<title>0x555586a6f7f0_permission: byte</title>
<polygon fill="none" stroke="black" points="1614,-36 1465,-36 1465,0 1614,0 1614,-36"/>
<text text-anchor="middle" x="1539.5" y="-14.3" font-family="Courier,monospace" font-size="14.00">permission: byte</text>
</g>
<!-- 0x555586a6f7f0&#45;&gt;0x555586a6f7f0_permission: byte -->
<g id="edge13" class="edge">
<title>0x555586a6f7f0&#45;&gt;0x555586a6f7f0_permission: byte</title>
<path fill="none" stroke="black" d="M807.87,-87.08C927.4,-82.62 1208.72,-69.39 1454.72,-35.99"/>
<polygon fill="black" stroke="black" points="1455.5,-39.42 1464.93,-34.59 1454.54,-32.49 1455.5,-39.42"/>
</g>
</g>
</svg>
