<?xml version="1.0" encoding="UTF-8" standalone="no"?>
<!DOCTYPE svg PUBLIC "-//W3C//DTD SVG 1.1//EN"
 "http://www.w3.org/Graphics/SVG/1.1/DTD/svg11.dtd">
<!-- Generated by graphviz version 2.43.0 (0)
 -->
<!-- Title: AST Pages: 1 -->
<svg width="2465pt" height="188pt"
 viewBox="0.00 0.00 2464.50 188.00" xmlns="http://www.w3.org/2000/svg" xmlns:xlink="http://www.w3.org/1999/xlink">
<g id="graph0" class="graph" transform="scale(1 1) rotate(0) translate(4 184)">
<title>AST</title>
<polygon fill="white" stroke="transparent" points="-4,4 -4,-184 2460.5,-184 2460.5,4 -4,4"/>
<!-- 0x55558f8b9790 -->
<g id="node1" class="node">
<title>0x55558f8b9790</title>
<polygon fill="none" stroke="black" points="770,-180 696,-180 696,-144 770,-144 770,-180"/>
<text text-anchor="middle" x="733" y="-158.3" font-family="Courier,monospace" font-size="14.00">PROGRAM</text>
</g>
<!-- 0x55558f8b9c60 -->
<g id="node2" class="node">
<title>0x55558f8b9c60</title>
<polygon fill="none" stroke="black" points="351,-108 211,-108 211,-72 351,-72 351,-108"/>
<text text-anchor="middle" x="281" y="-86.3" font-family="Courier,monospace" font-size="14.00">STRUCT: Address</text>
</g>
<!-- 0x55558f8b9790&#45;&gt;0x55558f8b9c60 -->
<g id="edge1" class="edge">
<title>0x55558f8b9790&#45;&gt;0x55558f8b9c60</title>
<path fill="none" stroke="black" d="M695.63,-155.21C622.62,-143.91 459.63,-118.66 361.14,-103.41"/>
<polygon fill="black" stroke="black" points="361.65,-99.95 351.23,-101.88 360.58,-106.87 361.65,-99.95"/>
</g>
<!-- 0x55558f8bb8d0 -->
<g id="node6" class="node">
<title>0x55558f8bb8d0</title>
<polygon fill="none" stroke="black" points="1317,-108 1201,-108 1201,-72 1317,-72 1317,-108"/>
<text text-anchor="middle" x="1259" y="-86.3" font-family="Courier,monospace" font-size="14.00">STRUCT: User</text>
</g>
<!-- 0x55558f8b9790&#45;&gt;0x55558f8bb8d0 -->
<g id="edge5" class="edge">
<title>0x55558f8b9790&#45;&gt;0x55558f8bb8d0</title>
<path fill="none" stroke="black" d="M770.41,-156.02C858.15,-144.35 1078.23,-115.06 1190.63,-100.1"/>
<polygon fill="black" stroke="black" points="1191.38,-103.53 1200.83,-98.74 1190.46,-96.59 1191.38,-103.53"/>
</g>
<!-- 0x55558f8b9c60_street: string -->
<g id="node3" class="node">
<title>0x55558f8b9c60_street: string</title>
<polygon fill="none" stroke="black" points="132,-36 0,-36 0,0 132,0 132,-36"/>
<text text-anchor="middle" x="66" y="-14.3" font-family="Courier,monospace" font-size="14.00">street: string</text>
</g>
<!-- 0x55558f8b9c60&#45;&gt;0x55558f8b9c60_street: string -->
<g id="edge2" class="edge">
<title>0x55558f8b9c60&#45;&gt;0x55558f8b9c60_street: string</title>
<path fill="none" stroke="black" d="M228.68,-71.97C198.38,-62.1 160.05,-49.62 128.21,-39.25"/>
<polygon fill="black" stroke="black" points="129.15,-35.88 118.55,-36.11 126.98,-42.53 129.15,-35.88"/>
</g>
<!-- 0x55558f8b9c60_city: string -->
<g id="node4" class="node">
<title>0x55558f8b9c60_city: string</title>
<polygon fill="none" stroke="black" points="266,-36 150,-36 150,0 266,0 266,-36"/>
<text text-anchor="middle" x="208" y="-14.3" font-family="Courier,monospace" font-size="14.00">city: string</text>
</g>
<!-- 0x55558f8b9c60&#45;&gt;0x55558f8b9c60_city: string -->
<g id="edge3" class="edge">
<title>0x55558f8b9c60&#45;&gt;0x55558f8b9c60_city: string</title>
<path fill="none" stroke="black" d="M262.96,-71.7C253.94,-63.05 242.88,-52.45 233.06,-43.03"/>
<polygon fill="black" stroke="black" points="235.48,-40.5 225.84,-36.1 230.63,-45.55 235.48,-40.5"/>
</g>
<!-- 0x55558f8b9c60_country: string -->
<g id="node5" class="node">
<title>0x55558f8b9c60_country: string</title>
<polygon fill="none" stroke="black" points="424,-36 284,-36 284,0 424,0 424,-36"/>
<text text-anchor="middle" x="354" y="-14.3" font-family="Courier,monospace" font-size="14.00">country: string</text>
</g>
<!-- 0x55558f8b9c60&#45;&gt;0x55558f8b9c60_country: string -->
<g id="edge4" class="edge">
<title>0x55558f8b9c60&#45;&gt;0x55558f8b9c60_country: string</title>
<path fill="none" stroke="black" d="M299.04,-71.7C308.06,-63.05 319.12,-52.45 328.94,-43.03"/>
<polygon fill="black" stroke="black" points="331.37,-45.55 336.16,-36.1 326.52,-40.5 331.37,-45.55"/>
</g>
<!-- 0x55558f8bb8d0_id: long -->
<g id="node7" class="node">
<title>0x55558f8bb8d0_id: long</title>
<polygon fill="none" stroke="black" points="525.5,-36 442.5,-36 442.5,0 525.5,0 525.5,-36"/>
<text text-anchor="middle" x="484" y="-14.3" font-family="Courier,monospace" font-size="14.00">id: long</text>
</g>
<!-- 0x55558f8bb8d0&#45;&gt;0x55558f8bb8d0_id: long -->
<g id="edge6" class="edge">
<title>0x55558f8bb8d0&#45;&gt;0x55558f8bb8d0_id: long</title>
<path fill="none" stroke="black" d="M1200.99,-89.73C1078.78,-90.21 786.12,-85.73 535.54,-36.02"/>
<polygon fill="black" stroke="black" points="536.02,-32.54 525.52,-34 534.64,-39.41 536.02,-32.54"/>
</g>
<!-- 0x55558f8bb8d0_age: int -->
<g id="node8" class="node">
<title>0x55558f8bb8d0_age: int</title>
<polygon fill="none" stroke="black" points="626.5,-36 543.5,-36 543.5,0 626.5,0 626.5,-36"/>
<text text-anchor="middle" x="585" y="-14.3" font-family="Courier,monospace" font-size="14.00">age: int</text>
</g>
<!-- 0x55558f8bb8d0&#45;&gt;0x55558f8bb8d0_age: int -->
<g id="edge7" class="edge">
<title>0x55558f8bb8d0&#45;&gt;0x55558f8bb8d0_age: int</title>
<path fill="none" stroke="black" d="M1200.8,-88.62C1091.53,-86.93 848.41,-78.46 636.59,-35.79"/>
<polygon fill="black" stroke="black" points="637.03,-32.31 626.53,-33.73 635.62,-39.17 637.03,-32.31"/>
</g>
<!-- 0x55558f8bb8d0_name: string -->
<g id="node9" class="node">
<title>0x55558f8bb8d0_name: string</title>
<polygon fill="none" stroke="black" points="761,-36 645,-36 645,0 761,0 761,-36"/>
<text text-anchor="middle" x="703" y="-14.3" font-family="Courier,monospace" font-size="14.00">name: string</text>
</g>
<!-- 0x55558f8bb8d0&#45;&gt;0x55558f8bb8d0_name: string -->
<g id="edge8" class="edge">
<title>0x55558f8bb8d0&#45;&gt;0x55558f8bb8d0_name: string</title>
<path fill="none" stroke="black" d="M1200.66,-85.34C1110.48,-79.1 931.74,-64.4 771.41,-36.12"/>
<polygon fill="black" stroke="black" points="771.82,-32.63 761.36,-34.32 770.59,-39.53 771.82,-32.63"/>
</g>
<!-- 0x55558f8bb8d0_password: string -->
<g id="node10" class="node">
<title>0x55558f8bb8d0_password: string</title>
<polygon fill="none" stroke="black" points="928.5,-36 779.5,-36 779.5,0 928.5,0 928.5,-36"/>
<text text-anchor="middle" x="854" y="-14.3" font-family="Courier,monospace" font-size="14.00">password: string</text>
</g>
<!-- 0x55558f8bb8d0&#45;&gt;0x55558f8bb8d0_password: string -->
<g id="edge9" class="edge">
<title>0x55558f8bb8d0&#45;&gt;0x55558f8bb8d0_password: string</title>
<path fill="none" stroke="black" d="M1200.71,-80.1C1138.26,-70.42 1036,-54.1 938.64,-36.27"/>
<polygon fill="black" stroke="black" points="939.1,-32.8 928.63,-34.43 937.83,-39.68 939.1,-32.8"/>
</g>
<!-- 0x55558f8bb8d0_bio: string -->
<g id="node11" class="node">
<title>0x55558f8bb8d0_bio: string</title>
<polygon fill="none" stroke="black" points="1053.5,-36 946.5,-36 946.5,0 1053.5,0 1053.5,-36"/>
<text text-anchor="middle" x="1000" y="-14.3" font-family="Courier,monospace" font-size="14.00">bio: string</text>
</g>
<!-- 0x55558f8bb8d0&#45;&gt;0x55558f8bb8d0_bio: string -->
<g id="edge10" class="edge">
<title>0x55558f8bb8d0&#45;&gt;0x55558f8bb8d0_bio: string</title>
<path fill="none" stroke="black" d="M1200.8,-73.42C1163.94,-63.54 1115.01,-50.38 1063.71,-36.46"/>
<polygon fill="black" stroke="black" points="1064.33,-33 1053.76,-33.76 1062.5,-39.76 1064.33,-33"/>
</g>
<!-- 0x55558f8bb8d0_admin: bool -->
<g id="node12" class="node">
<title>0x55558f8bb8d0_admin: bool</title>
<polygon fill="none" stroke="black" points="1178.5,-36 1071.5,-36 1071.5,0 1178.5,0 1178.5,-36"/>
<text text-anchor="middle" x="1125" y="-14.3" font-family="Courier,monospace" font-size="14.00">admin: bool</text>
</g>
<!-- 0x55558f8bb8d0&#45;&gt;0x55558f8bb8d0_admin: bool -->
<g id="edge11" class="edge">
<title>0x55558f8bb8d0&#45;&gt;0x55558f8bb8d0_admin: bool</title>
<path fill="none" stroke="black" d="M1226.22,-71.88C1208.37,-62.55 1186.1,-50.92 1167,-40.94"/>
<polygon fill="black" stroke="black" points="1168.39,-37.72 1157.91,-36.19 1165.15,-43.92 1168.39,-37.72"/>
</g>
<!-- 0x55558f8bb8d0_height: float -->
<g id="node13" class="node">
<title>0x55558f8bb8d0_height: float</title>
<polygon fill="none" stroke="black" points="1321,-36 1197,-36 1197,0 1321,0 1321,-36"/>
<text text-anchor="middle" x="1259" y="-14.3" font-family="Courier,monospace" font-size="14.00">height: float</text>
</g>
<!-- 0x55558f8bb8d0&#45;&gt;0x55558f8bb8d0_height: float -->
<g id="edge12" class="edge">
<title>0x55558f8bb8d0&#45;&gt;0x55558f8bb8d0_height: float</title>
<path fill="none" stroke="black" d="M1259,-71.7C1259,-63.98 1259,-54.71 1259,-46.11"/>
<polygon fill="black" stroke="black" points="1262.5,-46.1 1259,-36.1 1255.5,-46.1 1262.5,-46.1"/>
</g>
<!-- 0x55558f8bb8d0_weight: float -->
<g id="node14" class="node">
<title>0x55558f8bb8d0_weight: float</title>
<polygon fill="none" stroke="black" points="1463,-36 1339,-36 1339,0 1463,0 1463,-36"/>
<text text-anchor="middle" x="1401" y="-14.3" font-family="Courier,monospace" font-size="14.00">weight: float</text>
</g>
<!-- 0x55558f8bb8d0&#45;&gt;0x55558f8bb8d0_weight: float -->
<g id="edge13" class="edge">
<title>0x55558f8bb8d0&#45;&gt;0x55558f8bb8d0_weight: float</title>
<path fill="none" stroke="black" d="M1293.74,-71.88C1312.82,-62.47 1336.68,-50.71 1357.05,-40.67"/>
<polygon fill="black" stroke="black" points="1358.71,-43.75 1366.13,-36.19 1355.61,-37.47 1358.71,-43.75"/>
</g>
<!-- 0x55558f8bb8d0_balance: double -->
<g id="node15" class="node">
<title>0x55558f8bb8d0_balance: double</title>
<polygon fill="none" stroke="black" points="1621,-36 1481,-36 1481,0 1621,0 1621,-36"/>
<text text-anchor="middle" x="1551" y="-14.3" font-family="Courier,monospace" font-size="14.00">balance: double</text>
</g>
<!-- 0x55558f8bb8d0&#45;&gt;0x55558f8bb8d0_balance: double -->
<g id="edge14" class="edge">
<title>0x55558f8bb8d0&#45;&gt;0x55558f8bb8d0_balance: double</title>
<path fill="none" stroke="black" d="M1317.04,-75.09C1361.15,-64.51 1422.34,-49.84 1471.08,-38.16"/>
<polygon fill="black" stroke="black" points="1472.06,-41.52 1480.97,-35.79 1470.43,-34.72 1472.06,-41.52"/>
</g>
<!-- 0x55558f8bb8d0_gender: char -->
<g id="node16" class="node">
<title>0x55558f8bb8d0_gender: char</title>
<polygon fill="none" stroke="black" points="1755,-36 1639,-36 1639,0 1755,0 1755,-36"/>
<text text-anchor="middle" x="1697" y="-14.3" font-family="Courier,monospace" font-size="14.00">gender: char</text>
</g>
<!-- 0x55558f8bb8d0&#45;&gt;0x55558f8bb8d0_gender: char -->
<g id="edge15" class="edge">
<title>0x55558f8bb8d0&#45;&gt;0x55558f8bb8d0_gender: char</title>
<path fill="none" stroke="black" d="M1317.16,-82.64C1388.4,-74.41 1512.91,-58.63 1628.87,-36.11"/>
<polygon fill="black" stroke="black" points="1629.84,-39.49 1638.98,-34.12 1628.49,-32.62 1629.84,-39.49"/>
</g>
<!-- 0x55558f8bb8d0_version: int -->
<g id="node17" class="node">
<title>0x55558f8bb8d0_version: int</title>
<polygon fill="none" stroke="black" points="1889,-36 1773,-36 1773,0 1889,0 1889,-36"/>
<text text-anchor="middle" x="1831" y="-14.3" font-family="Courier,monospace" font-size="14.00">version: int</text>
</g>
<!-- 0x55558f8bb8d0&#45;&gt;0x55558f8bb8d0_version: int -->
<g id="edge16" class="edge">
<title>0x55558f8bb8d0&#45;&gt;0x55558f8bb8d0_version: int</title>
<path fill="none" stroke="black" d="M1317.32,-85.62C1409.89,-79.64 1596.2,-65.18 1762.72,-36.09"/>
<polygon fill="black" stroke="black" points="1763.4,-39.52 1772.64,-34.33 1762.19,-32.63 1763.4,-39.52"/>
</g>
<!-- 0x55558f8bb8d0_permission: byte -->
<g id="node18" class="node">
<title>0x55558f8bb8d0_permission: byte</title>
<polygon fill="none" stroke="black" points="2056.5,-36 1907.5,-36 1907.5,0 2056.5,0 2056.5,-36"/>
<text text-anchor="middle" x="1982" y="-14.3" font-family="Courier,monospace" font-size="14.00">permission: byte</text>
</g>
<!-- 0x55558f8bb8d0&#45;&gt;0x55558f8bb8d0_permission: byte -->
<g id="edge17" class="edge">
<title>0x55558f8bb8d0&#45;&gt;0x55558f8bb8d0_permission: byte</title>
<path fill="none" stroke="black" d="M1317.4,-86.44C1428.41,-81.09 1677.6,-66.68 1897.31,-35.99"/>
<polygon fill="black" stroke="black" points="1898.01,-39.43 1907.42,-34.56 1897.03,-32.5 1898.01,-39.43"/>
</g>
<!-- 0x55558f8bb8d0_supervisor: option&lt;User&gt; -->
<g id="node19" class="node">
<title>0x55558f8bb8d0_supervisor: option&lt;User&gt;</title>
<polygon fill="none" stroke="black" points="2289.5,-36 2074.5,-36 2074.5,0 2289.5,0 2289.5,-36"/>
<text text-anchor="middle" x="2182" y="-14.3" font-family="Courier,monospace" font-size="14.00">supervisor: option&lt;User&gt;</text>
</g>
<!-- 0x55558f8bb8d0&#45;&gt;0x55558f8bb8d0_supervisor: option&lt;User&gt; -->
<g id="edge18" class="edge">
<title>0x55558f8bb8d0&#45;&gt;0x55558f8bb8d0_supervisor: option&lt;User&gt;</title>
<path fill="none" stroke="black" d="M1317.37,-86.77C1448.88,-81.39 1778.56,-65.99 2064.15,-36.15"/>
<polygon fill="black" stroke="black" points="2064.71,-39.61 2074.29,-35.08 2063.98,-32.65 2064.71,-39.61"/>
</g>
<!-- 0x55558f8bb8d0_address: Address -->
<g id="node20" class="node">
<title>0x55558f8bb8d0_address: Address</title>
<polygon fill="none" stroke="black" points="2456.5,-36 2307.5,-36 2307.5,0 2456.5,0 2456.5,-36"/>
<text text-anchor="middle" x="2382" y="-14.3" font-family="Courier,monospace" font-size="14.00">address: Address</text>
</g>
<!-- 0x55558f8bb8d0&#45;&gt;0x55558f8bb8d0_address: Address -->
<g id="edge19" class="edge">
<title>0x55558f8bb8d0&#45;&gt;0x55558f8bb8d0_address: Address</title>
<path fill="none" stroke="black" d="M1317.06,-89.11C1473.88,-88.75 1919.16,-83.38 2297.39,-36.09"/>
<polygon fill="black" stroke="black" points="2297.95,-39.55 2307.43,-34.83 2297.07,-32.61 2297.95,-39.55"/>
</g>
</g>
</svg>
