<?xml version="1.0" encoding="UTF-8" standalone="no"?>
<!DOCTYPE svg PUBLIC "-//W3C//DTD SVG 1.1//EN"
 "http://www.w3.org/Graphics/SVG/1.1/DTD/svg11.dtd">
<!-- Generated by graphviz version 2.43.0 (0)
 -->
<!-- Title: AST Pages: 1 -->
<svg width="656pt" height="548pt"
 viewBox="0.00 0.00 656.00 548.00" xmlns="http://www.w3.org/2000/svg" xmlns:xlink="http://www.w3.org/1999/xlink">
<g id="graph0" class="graph" transform="scale(1 1) rotate(0) translate(4 544)">
<title>AST</title>
<polygon fill="white" stroke="transparent" points="-4,4 -4,-544 652,-544 652,4 -4,4"/>
<!-- 0x55558468a080 -->
<g id="node1" class="node">
<title>0x55558468a080</title>
<polygon fill="none" stroke="black" points="151,-540 77,-540 77,-504 151,-504 151,-540"/>
<text text-anchor="middle" x="114" y="-518.3" font-family="Courier,monospace" font-size="14.00">PROGRAM</text>
</g>
<!-- 0x55558468a000 -->
<g id="node2" class="node">
<title>0x55558468a000</title>
<polygon fill="none" stroke="black" points="188.5,-468 39.5,-468 39.5,-432 188.5,-432 188.5,-468"/>
<text text-anchor="middle" x="114" y="-446.3" font-family="Courier,monospace" font-size="14.00">FUNCTION: test()</text>
</g>
<!-- 0x55558468a080&#45;&gt;0x55558468a000 -->
<g id="edge1" class="edge">
<title>0x55558468a080&#45;&gt;0x55558468a000</title>
<path fill="none" stroke="black" d="M114,-503.7C114,-495.98 114,-486.71 114,-478.11"/>
<polygon fill="black" stroke="black" points="117.5,-478.1 114,-468.1 110.5,-478.1 117.5,-478.1"/>
</g>
<!-- 0x555584689780 -->
<g id="node3" class="node">
<title>0x555584689780</title>
<polygon fill="none" stroke="black" points="107,-396 33,-396 33,-360 107,-360 107,-396"/>
<text text-anchor="middle" x="70" y="-374.3" font-family="Courier,monospace" font-size="14.00">ATTR: i</text>
</g>
<!-- 0x55558468a000&#45;&gt;0x555584689780 -->
<g id="edge2" class="edge">
<title>0x55558468a000&#45;&gt;0x555584689780</title>
<path fill="none" stroke="black" d="M103.12,-431.7C98.01,-423.56 91.8,-413.69 86.16,-404.7"/>
<polygon fill="black" stroke="black" points="89.04,-402.71 80.75,-396.1 83.11,-406.43 89.04,-402.71"/>
</g>
<!-- 0x555584689f90 -->
<g id="node5" class="node">
<title>0x555584689f90</title>
<polygon fill="none" stroke="black" points="209,-396 143,-396 143,-360 209,-360 209,-396"/>
<text text-anchor="middle" x="176" y="-374.3" font-family="Courier,monospace" font-size="14.00">SWITCH</text>
</g>
<!-- 0x55558468a000&#45;&gt;0x555584689f90 -->
<g id="edge4" class="edge">
<title>0x55558468a000&#45;&gt;0x555584689f90</title>
<path fill="none" stroke="black" d="M129.33,-431.7C136.76,-423.3 145.82,-413.07 153.98,-403.86"/>
<polygon fill="black" stroke="black" points="156.84,-405.91 160.85,-396.1 151.6,-401.27 156.84,-405.91"/>
</g>
<!-- 0x555584689730 -->
<g id="node4" class="node">
<title>0x555584689730</title>
<polygon fill="none" stroke="black" points="66,-324 0,-324 0,-288 66,-288 66,-324"/>
<text text-anchor="middle" x="33" y="-302.3" font-family="Courier,monospace" font-size="14.00">INT: 0</text>
</g>
<!-- 0x555584689780&#45;&gt;0x555584689730 -->
<g id="edge3" class="edge">
<title>0x555584689780&#45;&gt;0x555584689730</title>
<path fill="none" stroke="black" d="M60.85,-359.7C56.6,-351.64 51.44,-341.89 46.73,-332.98"/>
<polygon fill="black" stroke="black" points="49.81,-331.31 42.04,-324.1 43.62,-334.58 49.81,-331.31"/>
</g>
<!-- 0x555584689870 -->
<g id="node6" class="node">
<title>0x555584689870</title>
<polygon fill="none" stroke="black" points="150,-324 84,-324 84,-288 150,-288 150,-324"/>
<text text-anchor="middle" x="117" y="-302.3" font-family="Courier,monospace" font-size="14.00">ACCESS</text>
</g>
<!-- 0x555584689f90&#45;&gt;0x555584689870 -->
<g id="edge5" class="edge">
<title>0x555584689f90&#45;&gt;0x555584689870</title>
<path fill="none" stroke="black" d="M161.42,-359.7C154.34,-351.3 145.72,-341.07 137.95,-331.86"/>
<polygon fill="black" stroke="black" points="140.54,-329.49 131.42,-324.1 135.19,-334.01 140.54,-329.49"/>
</g>
<!-- 0x555584689be0 -->
<g id="node8" class="node">
<title>0x555584689be0</title>
<polygon fill="none" stroke="black" points="222,-324 168,-324 168,-288 222,-288 222,-324"/>
<text text-anchor="middle" x="195" y="-302.3" font-family="Courier,monospace" font-size="14.00">CASE</text>
</g>
<!-- 0x555584689f90&#45;&gt;0x555584689be0 -->
<g id="edge7" class="edge">
<title>0x555584689f90&#45;&gt;0x555584689be0</title>
<path fill="none" stroke="black" d="M180.7,-359.7C182.81,-351.9 185.36,-342.51 187.72,-333.83"/>
<polygon fill="black" stroke="black" points="191.12,-334.67 190.36,-324.1 184.36,-332.84 191.12,-334.67"/>
</g>
<!-- 0x555584689f00 -->
<g id="node15" class="node">
<title>0x555584689f00</title>
<polygon fill="none" stroke="black" points="315,-324 241,-324 241,-288 315,-288 315,-324"/>
<text text-anchor="middle" x="278" y="-302.3" font-family="Courier,monospace" font-size="14.00">DEFAULT</text>
</g>
<!-- 0x555584689f90&#45;&gt;0x555584689f00 -->
<g id="edge14" class="edge">
<title>0x555584689f90&#45;&gt;0x555584689f00</title>
<path fill="none" stroke="black" d="M200.95,-359.88C214.04,-350.89 230.26,-339.76 244.44,-330.03"/>
<polygon fill="black" stroke="black" points="246.69,-332.73 252.95,-324.19 242.73,-326.96 246.69,-332.73"/>
</g>
<!-- 0x555584689810 -->
<g id="node7" class="node">
<title>0x555584689810</title>
<polygon fill="none" stroke="black" points="102,-252 44,-252 44,-216 102,-216 102,-252"/>
<text text-anchor="middle" x="73" y="-230.3" font-family="Courier,monospace" font-size="14.00">ID: i</text>
</g>
<!-- 0x555584689870&#45;&gt;0x555584689810 -->
<g id="edge6" class="edge">
<title>0x555584689870&#45;&gt;0x555584689810</title>
<path fill="none" stroke="black" d="M106.12,-287.7C101.01,-279.56 94.8,-269.69 89.16,-260.7"/>
<polygon fill="black" stroke="black" points="92.04,-258.71 83.75,-252.1 86.11,-262.43 92.04,-258.71"/>
</g>
<!-- 0x5555846898e0 -->
<g id="node9" class="node">
<title>0x5555846898e0</title>
<polygon fill="none" stroke="black" points="186,-252 120,-252 120,-216 186,-216 186,-252"/>
<text text-anchor="middle" x="153" y="-230.3" font-family="Courier,monospace" font-size="14.00">INT: 0</text>
</g>
<!-- 0x555584689be0&#45;&gt;0x5555846898e0 -->
<g id="edge8" class="edge">
<title>0x555584689be0&#45;&gt;0x5555846898e0</title>
<path fill="none" stroke="black" d="M184.62,-287.7C179.74,-279.56 173.81,-269.69 168.42,-260.7"/>
<polygon fill="black" stroke="black" points="171.41,-258.88 163.26,-252.1 165.41,-262.48 171.41,-258.88"/>
</g>
<!-- 0x555584689b70 -->
<g id="node10" class="node">
<title>0x555584689b70</title>
<polygon fill="none" stroke="black" points="270,-252 204,-252 204,-216 270,-216 270,-252"/>
<text text-anchor="middle" x="237" y="-230.3" font-family="Courier,monospace" font-size="14.00">ACCESS</text>
</g>
<!-- 0x555584689be0&#45;&gt;0x555584689b70 -->
<g id="edge9" class="edge">
<title>0x555584689be0&#45;&gt;0x555584689b70</title>
<path fill="none" stroke="black" d="M205.38,-287.7C210.26,-279.56 216.19,-269.69 221.58,-260.7"/>
<polygon fill="black" stroke="black" points="224.59,-262.48 226.74,-252.1 218.59,-258.88 224.59,-262.48"/>
</g>
<!-- 0x555584689ad0 -->
<g id="node11" class="node">
<title>0x555584689ad0</title>
<polygon fill="none" stroke="black" points="255,-180 201,-180 201,-144 255,-144 255,-180"/>
<text text-anchor="middle" x="228" y="-158.3" font-family="Courier,monospace" font-size="14.00">CALL</text>
</g>
<!-- 0x555584689b70&#45;&gt;0x555584689ad0 -->
<g id="edge10" class="edge">
<title>0x555584689b70&#45;&gt;0x555584689ad0</title>
<path fill="none" stroke="black" d="M234.78,-215.7C233.78,-207.98 232.59,-198.71 231.49,-190.11"/>
<polygon fill="black" stroke="black" points="234.95,-189.58 230.2,-180.1 228,-190.47 234.95,-189.58"/>
</g>
<!-- 0x5555846899b0 -->
<g id="node12" class="node">
<title>0x5555846899b0</title>
<polygon fill="none" stroke="black" points="140,-108 74,-108 74,-72 140,-72 140,-108"/>
<text text-anchor="middle" x="107" y="-86.3" font-family="Courier,monospace" font-size="14.00">ACCESS</text>
</g>
<!-- 0x555584689ad0&#45;&gt;0x5555846899b0 -->
<g id="edge11" class="edge">
<title>0x555584689ad0&#45;&gt;0x5555846899b0</title>
<path fill="none" stroke="black" d="M200.85,-145.29C184.59,-135.89 163.66,-123.78 145.69,-113.38"/>
<polygon fill="black" stroke="black" points="147.01,-110.11 136.61,-108.13 143.51,-116.16 147.01,-110.11"/>
</g>
<!-- 0x555584689a20 -->
<g id="node14" class="node">
<title>0x555584689a20</title>
<polygon fill="none" stroke="black" points="298,-108 158,-108 158,-72 298,-72 298,-108"/>
<text text-anchor="middle" x="228" y="-86.3" font-family="Courier,monospace" font-size="14.00">STRING: &quot;Zero!&quot;</text>
</g>
<!-- 0x555584689ad0&#45;&gt;0x555584689a20 -->
<g id="edge13" class="edge">
<title>0x555584689ad0&#45;&gt;0x555584689a20</title>
<path fill="none" stroke="black" d="M228,-143.7C228,-135.98 228,-126.71 228,-118.11"/>
<polygon fill="black" stroke="black" points="231.5,-118.1 228,-108.1 224.5,-118.1 231.5,-118.1"/>
</g>
<!-- 0x555584689950 -->
<g id="node13" class="node">
<title>0x555584689950</title>
<polygon fill="none" stroke="black" points="160.5,-36 53.5,-36 53.5,0 160.5,0 160.5,-36"/>
<text text-anchor="middle" x="107" y="-14.3" font-family="Courier,monospace" font-size="14.00">ID: println</text>
</g>
<!-- 0x5555846899b0&#45;&gt;0x555584689950 -->
<g id="edge12" class="edge">
<title>0x5555846899b0&#45;&gt;0x555584689950</title>
<path fill="none" stroke="black" d="M107,-71.7C107,-63.98 107,-54.71 107,-46.11"/>
<polygon fill="black" stroke="black" points="110.5,-46.1 107,-36.1 103.5,-46.1 110.5,-46.1"/>
</g>
<!-- 0x555584689e90 -->
<g id="node16" class="node">
<title>0x555584689e90</title>
<polygon fill="none" stroke="black" points="372,-252 306,-252 306,-216 372,-216 372,-252"/>
<text text-anchor="middle" x="339" y="-230.3" font-family="Courier,monospace" font-size="14.00">ACCESS</text>
</g>
<!-- 0x555584689f00&#45;&gt;0x555584689e90 -->
<g id="edge15" class="edge">
<title>0x555584689f00&#45;&gt;0x555584689e90</title>
<path fill="none" stroke="black" d="M293.08,-287.7C300.39,-279.3 309.31,-269.07 317.34,-259.86"/>
<polygon fill="black" stroke="black" points="320.16,-261.94 324.09,-252.1 314.89,-257.34 320.16,-261.94"/>
</g>
<!-- 0x555584689df0 -->
<g id="node17" class="node">
<title>0x555584689df0</title>
<polygon fill="none" stroke="black" points="376,-180 322,-180 322,-144 376,-144 376,-180"/>
<text text-anchor="middle" x="349" y="-158.3" font-family="Courier,monospace" font-size="14.00">CALL</text>
</g>
<!-- 0x555584689e90&#45;&gt;0x555584689df0 -->
<g id="edge16" class="edge">
<title>0x555584689e90&#45;&gt;0x555584689df0</title>
<path fill="none" stroke="black" d="M341.47,-215.7C342.57,-207.98 343.9,-198.71 345.13,-190.11"/>
<polygon fill="black" stroke="black" points="348.61,-190.5 346.56,-180.1 341.68,-189.51 348.61,-190.5"/>
</g>
<!-- 0x555584689cd0 -->
<g id="node18" class="node">
<title>0x555584689cd0</title>
<polygon fill="none" stroke="black" points="382,-108 316,-108 316,-72 382,-72 382,-108"/>
<text text-anchor="middle" x="349" y="-86.3" font-family="Courier,monospace" font-size="14.00">ACCESS</text>
</g>
<!-- 0x555584689df0&#45;&gt;0x555584689cd0 -->
<g id="edge17" class="edge">
<title>0x555584689df0&#45;&gt;0x555584689cd0</title>
<path fill="none" stroke="black" d="M349,-143.7C349,-135.98 349,-126.71 349,-118.11"/>
<polygon fill="black" stroke="black" points="352.5,-118.1 349,-108.1 345.5,-118.1 352.5,-118.1"/>
</g>
<!-- 0x555584689d60 -->
<g id="node20" class="node">
<title>0x555584689d60</title>
<polygon fill="none" stroke="black" points="648,-108 400,-108 400,-72 648,-72 648,-108"/>
<text text-anchor="middle" x="524" y="-86.3" font-family="Courier,monospace" font-size="14.00">STRING: &quot;Diferente de zero!&quot;</text>
</g>
<!-- 0x555584689df0&#45;&gt;0x555584689d60 -->
<g id="edge19" class="edge">
<title>0x555584689df0&#45;&gt;0x555584689d60</title>
<path fill="none" stroke="black" d="M376.34,-150.06C401.78,-139.89 440.37,-124.45 471.72,-111.91"/>
<polygon fill="black" stroke="black" points="473.21,-115.09 481.19,-108.12 470.61,-108.59 473.21,-115.09"/>
</g>
<!-- 0x555584689c70 -->
<g id="node19" class="node">
<title>0x555584689c70</title>
<polygon fill="none" stroke="black" points="402.5,-36 295.5,-36 295.5,0 402.5,0 402.5,-36"/>
<text text-anchor="middle" x="349" y="-14.3" font-family="Courier,monospace" font-size="14.00">ID: println</text>
</g>
<!-- 0x555584689cd0&#45;&gt;0x555584689c70 -->
<g id="edge18" class="edge">
<title>0x555584689cd0&#45;&gt;0x555584689c70</title>
<path fill="none" stroke="black" d="M349,-71.7C349,-63.98 349,-54.71 349,-46.11"/>
<polygon fill="black" stroke="black" points="352.5,-46.1 349,-36.1 345.5,-46.1 352.5,-46.1"/>
</g>
</g>
</svg>
