<?xml version="1.0" encoding="UTF-8" standalone="no"?>
<!DOCTYPE svg PUBLIC "-//W3C//DTD SVG 1.1//EN"
 "http://www.w3.org/Graphics/SVG/1.1/DTD/svg11.dtd">
<!-- Generated by graphviz version 2.43.0 (0)
 -->
<!-- Title: AST Pages: 1 -->
<svg width="3279pt" height="404pt"
 viewBox="0.00 0.00 3278.50 404.00" xmlns="http://www.w3.org/2000/svg" xmlns:xlink="http://www.w3.org/1999/xlink">
<g id="graph0" class="graph" transform="scale(1 1) rotate(0) translate(4 400)">
<title>AST</title>
<polygon fill="white" stroke="transparent" points="-4,4 -4,-400 3274.5,-400 3274.5,4 -4,4"/>
<!-- 0x55558e3488b0 -->
<g id="node1" class="node">
<title>0x55558e3488b0</title>
<polygon fill="none" stroke="black" points="2076,-396 2002,-396 2002,-360 2076,-360 2076,-396"/>
<text text-anchor="middle" x="2039" y="-374.3" font-family="Courier,monospace" font-size="14.00">PROGRAM</text>
</g>
<!-- 0x55558e348d80 -->
<g id="node2" class="node">
<title>0x55558e348d80</title>
<polygon fill="none" stroke="black" points="351,-324 211,-324 211,-288 351,-288 351,-324"/>
<text text-anchor="middle" x="281" y="-302.3" font-family="Courier,monospace" font-size="14.00">STRUCT: Address</text>
</g>
<!-- 0x55558e3488b0&#45;&gt;0x55558e348d80 -->
<g id="edge1" class="edge">
<title>0x55558e3488b0&#45;&gt;0x55558e348d80</title>
<path fill="none" stroke="black" d="M2001.88,-375.52C1784.17,-366.85 672.16,-322.58 361.63,-310.21"/>
<polygon fill="black" stroke="black" points="361.49,-306.7 351.36,-309.8 361.22,-313.7 361.49,-306.7"/>
</g>
<!-- 0x55558e34a9f0 -->
<g id="node6" class="node">
<title>0x55558e34a9f0</title>
<polygon fill="none" stroke="black" points="1459,-324 1343,-324 1343,-288 1459,-288 1459,-324"/>
<text text-anchor="middle" x="1401" y="-302.3" font-family="Courier,monospace" font-size="14.00">STRUCT: User</text>
</g>
<!-- 0x55558e3488b0&#45;&gt;0x55558e34a9f0 -->
<g id="edge5" class="edge">
<title>0x55558e3488b0&#45;&gt;0x55558e34a9f0</title>
<path fill="none" stroke="black" d="M2001.94,-372.93C1898.26,-361.56 1604.07,-329.28 1469.59,-314.53"/>
<polygon fill="black" stroke="black" points="1469.74,-311.02 1459.42,-313.41 1468.97,-317.98 1469.74,-311.02"/>
</g>
<!-- 0x55558e34ad00 -->
<g id="node21" class="node">
<title>0x55558e34ad00</title>
<polygon fill="none" stroke="black" points="2731.5,-324 2624.5,-324 2624.5,-288 2731.5,-288 2731.5,-324"/>
<text text-anchor="middle" x="2678" y="-302.3" font-family="Courier,monospace" font-size="14.00">TRAIT: Test</text>
</g>
<!-- 0x55558e3488b0&#45;&gt;0x55558e34ad00 -->
<g id="edge20" class="edge">
<title>0x55558e3488b0&#45;&gt;0x55558e34ad00</title>
<path fill="none" stroke="black" d="M2076.12,-372.93C2181.26,-361.42 2482.01,-328.47 2614.27,-313.98"/>
<polygon fill="black" stroke="black" points="2614.7,-317.46 2624.26,-312.89 2613.94,-310.5 2614.7,-317.46"/>
</g>
<!-- 0x55558e34b440 -->
<g id="node26" class="node">
<title>0x55558e34b440</title>
<polygon fill="none" stroke="black" points="3182.5,-324 3033.5,-324 3033.5,-288 3182.5,-288 3182.5,-324"/>
<text text-anchor="middle" x="3108" y="-302.3" font-family="Courier,monospace" font-size="14.00">FUNCTION: main()</text>
</g>
<!-- 0x55558e3488b0&#45;&gt;0x55558e34b440 -->
<g id="edge25" class="edge">
<title>0x55558e3488b0&#45;&gt;0x55558e34b440</title>
<path fill="none" stroke="black" d="M2076.11,-374.57C2227.94,-364.63 2804.14,-326.9 3022.98,-312.57"/>
<polygon fill="black" stroke="black" points="3023.38,-316.05 3033.13,-311.9 3022.92,-309.06 3023.38,-316.05"/>
</g>
<!-- 0x55558e348d80_street: string -->
<g id="node3" class="node">
<title>0x55558e348d80_street: string</title>
<polygon fill="none" stroke="black" points="132,-252 0,-252 0,-216 132,-216 132,-252"/>
<text text-anchor="middle" x="66" y="-230.3" font-family="Courier,monospace" font-size="14.00">street: string</text>
</g>
<!-- 0x55558e348d80&#45;&gt;0x55558e348d80_street: string -->
<g id="edge2" class="edge">
<title>0x55558e348d80&#45;&gt;0x55558e348d80_street: string</title>
<path fill="none" stroke="black" d="M228.68,-287.97C198.38,-278.1 160.05,-265.62 128.21,-255.25"/>
<polygon fill="black" stroke="black" points="129.15,-251.88 118.55,-252.11 126.98,-258.53 129.15,-251.88"/>
</g>
<!-- 0x55558e348d80_city: string -->
<g id="node4" class="node">
<title>0x55558e348d80_city: string</title>
<polygon fill="none" stroke="black" points="266,-252 150,-252 150,-216 266,-216 266,-252"/>
<text text-anchor="middle" x="208" y="-230.3" font-family="Courier,monospace" font-size="14.00">city: string</text>
</g>
<!-- 0x55558e348d80&#45;&gt;0x55558e348d80_city: string -->
<g id="edge3" class="edge">
<title>0x55558e348d80&#45;&gt;0x55558e348d80_city: string</title>
<path fill="none" stroke="black" d="M262.96,-287.7C253.94,-279.05 242.88,-268.45 233.06,-259.03"/>
<polygon fill="black" stroke="black" points="235.48,-256.5 225.84,-252.1 230.63,-261.55 235.48,-256.5"/>
</g>
<!-- 0x55558e348d80_country: string -->
<g id="node5" class="node">
<title>0x55558e348d80_country: string</title>
<polygon fill="none" stroke="black" points="424,-252 284,-252 284,-216 424,-216 424,-252"/>
<text text-anchor="middle" x="354" y="-230.3" font-family="Courier,monospace" font-size="14.00">country: string</text>
</g>
<!-- 0x55558e348d80&#45;&gt;0x55558e348d80_country: string -->
<g id="edge4" class="edge">
<title>0x55558e348d80&#45;&gt;0x55558e348d80_country: string</title>
<path fill="none" stroke="black" d="M299.04,-287.7C308.06,-279.05 319.12,-268.45 328.94,-259.03"/>
<polygon fill="black" stroke="black" points="331.37,-261.55 336.16,-252.1 326.52,-256.5 331.37,-261.55"/>
</g>
<!-- 0x55558e34a9f0_id: long -->
<g id="node7" class="node">
<title>0x55558e34a9f0_id: long</title>
<polygon fill="none" stroke="black" points="525.5,-252 442.5,-252 442.5,-216 525.5,-216 525.5,-252"/>
<text text-anchor="middle" x="484" y="-230.3" font-family="Courier,monospace" font-size="14.00">id: long</text>
</g>
<!-- 0x55558e34a9f0&#45;&gt;0x55558e34a9f0_id: long -->
<g id="edge6" class="edge">
<title>0x55558e34a9f0&#45;&gt;0x55558e34a9f0_id: long</title>
<path fill="none" stroke="black" d="M1342.73,-303.46C1177.69,-298.79 708.36,-283.25 535.49,-251.93"/>
<polygon fill="black" stroke="black" points="535.99,-248.46 525.52,-250.04 534.69,-255.34 535.99,-248.46"/>
</g>
<!-- 0x55558e34a9f0_age: int -->
<g id="node8" class="node">
<title>0x55558e34a9f0_age: int</title>
<polygon fill="none" stroke="black" points="626.5,-252 543.5,-252 543.5,-216 626.5,-216 626.5,-252"/>
<text text-anchor="middle" x="585" y="-230.3" font-family="Courier,monospace" font-size="14.00">age: int</text>
</g>
<!-- 0x55558e34a9f0&#45;&gt;0x55558e34a9f0_age: int -->
<g id="edge7" class="edge">
<title>0x55558e34a9f0&#45;&gt;0x55558e34a9f0_age: int</title>
<path fill="none" stroke="black" d="M1342.78,-302.87C1191.89,-297.05 789.86,-279.59 636.68,-251.73"/>
<polygon fill="black" stroke="black" points="637,-248.22 626.52,-249.79 635.68,-255.1 637,-248.22"/>
</g>
<!-- 0x55558e34a9f0_name: string -->
<g id="node9" class="node">
<title>0x55558e34a9f0_name: string</title>
<polygon fill="none" stroke="black" points="761,-252 645,-252 645,-216 761,-216 761,-252"/>
<text text-anchor="middle" x="703" y="-230.3" font-family="Courier,monospace" font-size="14.00">name: string</text>
</g>
<!-- 0x55558e34a9f0&#45;&gt;0x55558e34a9f0_name: string -->
<g id="edge8" class="edge">
<title>0x55558e34a9f0&#45;&gt;0x55558e34a9f0_name: string</title>
<path fill="none" stroke="black" d="M1342.75,-303.31C1232.67,-299.42 986.58,-287.41 771.25,-252.05"/>
<polygon fill="black" stroke="black" points="771.78,-248.59 761.35,-250.41 770.64,-255.5 771.78,-248.59"/>
</g>
<!-- 0x55558e34a9f0_password: string -->
<g id="node10" class="node">
<title>0x55558e34a9f0_password: string</title>
<polygon fill="none" stroke="black" points="928.5,-252 779.5,-252 779.5,-216 928.5,-216 928.5,-252"/>
<text text-anchor="middle" x="854" y="-230.3" font-family="Courier,monospace" font-size="14.00">password: string</text>
</g>
<!-- 0x55558e34a9f0&#45;&gt;0x55558e34a9f0_password: string -->
<g id="edge9" class="edge">
<title>0x55558e34a9f0&#45;&gt;0x55558e34a9f0_password: string</title>
<path fill="none" stroke="black" d="M1342.91,-300.03C1256.71,-292.28 1089.7,-275.86 938.53,-252.17"/>
<polygon fill="black" stroke="black" points="939.02,-248.71 928.6,-250.6 937.93,-255.62 939.02,-248.71"/>
</g>
<!-- 0x55558e34a9f0_bio: string -->
<g id="node11" class="node">
<title>0x55558e34a9f0_bio: string</title>
<polygon fill="none" stroke="black" points="1053.5,-252 946.5,-252 946.5,-216 1053.5,-216 1053.5,-252"/>
<text text-anchor="middle" x="1000" y="-230.3" font-family="Courier,monospace" font-size="14.00">bio: string</text>
</g>
<!-- 0x55558e34a9f0&#45;&gt;0x55558e34a9f0_bio: string -->
<g id="edge10" class="edge">
<title>0x55558e34a9f0&#45;&gt;0x55558e34a9f0_bio: string</title>
<path fill="none" stroke="black" d="M1342.75,-297.92C1277.04,-289.48 1166.86,-273.97 1063.64,-252.24"/>
<polygon fill="black" stroke="black" points="1064.19,-248.78 1053.68,-250.12 1062.73,-255.62 1064.19,-248.78"/>
</g>
<!-- 0x55558e34a9f0_admin: bool -->
<g id="node12" class="node">
<title>0x55558e34a9f0_admin: bool</title>
<polygon fill="none" stroke="black" points="1178.5,-252 1071.5,-252 1071.5,-216 1178.5,-216 1178.5,-252"/>
<text text-anchor="middle" x="1125" y="-230.3" font-family="Courier,monospace" font-size="14.00">admin: bool</text>
</g>
<!-- 0x55558e34a9f0&#45;&gt;0x55558e34a9f0_admin: bool -->
<g id="edge11" class="edge">
<title>0x55558e34a9f0&#45;&gt;0x55558e34a9f0_admin: bool</title>
<path fill="none" stroke="black" d="M1342.61,-290.8C1302.02,-280.85 1246.43,-267.08 1188.32,-252.06"/>
<polygon fill="black" stroke="black" points="1189.16,-248.66 1178.6,-249.54 1187.4,-255.44 1189.16,-248.66"/>
</g>
<!-- 0x55558e34a9f0_height: float -->
<g id="node13" class="node">
<title>0x55558e34a9f0_height: float</title>
<polygon fill="none" stroke="black" points="1321,-252 1197,-252 1197,-216 1321,-216 1321,-252"/>
<text text-anchor="middle" x="1259" y="-230.3" font-family="Courier,monospace" font-size="14.00">height: float</text>
</g>
<!-- 0x55558e34a9f0&#45;&gt;0x55558e34a9f0_height: float -->
<g id="edge12" class="edge">
<title>0x55558e34a9f0&#45;&gt;0x55558e34a9f0_height: float</title>
<path fill="none" stroke="black" d="M1366.26,-287.88C1347.18,-278.47 1323.32,-266.71 1302.95,-256.67"/>
<polygon fill="black" stroke="black" points="1304.39,-253.47 1293.87,-252.19 1301.29,-259.75 1304.39,-253.47"/>
</g>
<!-- 0x55558e34a9f0_weight: float -->
<g id="node14" class="node">
<title>0x55558e34a9f0_weight: float</title>
<polygon fill="none" stroke="black" points="1463,-252 1339,-252 1339,-216 1463,-216 1463,-252"/>
<text text-anchor="middle" x="1401" y="-230.3" font-family="Courier,monospace" font-size="14.00">weight: float</text>
</g>
<!-- 0x55558e34a9f0&#45;&gt;0x55558e34a9f0_weight: float -->
<g id="edge13" class="edge">
<title>0x55558e34a9f0&#45;&gt;0x55558e34a9f0_weight: float</title>
<path fill="none" stroke="black" d="M1401,-287.7C1401,-279.98 1401,-270.71 1401,-262.11"/>
<polygon fill="black" stroke="black" points="1404.5,-262.1 1401,-252.1 1397.5,-262.1 1404.5,-262.1"/>
</g>
<!-- 0x55558e34a9f0_balance: double -->
<g id="node15" class="node">
<title>0x55558e34a9f0_balance: double</title>
<polygon fill="none" stroke="black" points="1621,-252 1481,-252 1481,-216 1621,-216 1621,-252"/>
<text text-anchor="middle" x="1551" y="-230.3" font-family="Courier,monospace" font-size="14.00">balance: double</text>
</g>
<!-- 0x55558e34a9f0&#45;&gt;0x55558e34a9f0_balance: double -->
<g id="edge14" class="edge">
<title>0x55558e34a9f0&#45;&gt;0x55558e34a9f0_balance: double</title>
<path fill="none" stroke="black" d="M1437.69,-287.88C1458.02,-278.39 1483.47,-266.51 1505.1,-256.42"/>
<polygon fill="black" stroke="black" points="1506.84,-259.47 1514.43,-252.07 1503.88,-253.13 1506.84,-259.47"/>
</g>
<!-- 0x55558e34a9f0_gender: char -->
<g id="node16" class="node">
<title>0x55558e34a9f0_gender: char</title>
<polygon fill="none" stroke="black" points="1755,-252 1639,-252 1639,-216 1755,-216 1755,-252"/>
<text text-anchor="middle" x="1697" y="-230.3" font-family="Courier,monospace" font-size="14.00">gender: char</text>
</g>
<!-- 0x55558e34a9f0&#45;&gt;0x55558e34a9f0_gender: char -->
<g id="edge15" class="edge">
<title>0x55558e34a9f0&#45;&gt;0x55558e34a9f0_gender: char</title>
<path fill="none" stroke="black" d="M1459.44,-291.83C1503.5,-281.82 1565.67,-267.52 1629.13,-252.19"/>
<polygon fill="black" stroke="black" points="1630.02,-255.57 1638.91,-249.82 1628.37,-248.77 1630.02,-255.57"/>
</g>
<!-- 0x55558e34a9f0_version: int -->
<g id="node17" class="node">
<title>0x55558e34a9f0_version: int</title>
<polygon fill="none" stroke="black" points="1889,-252 1773,-252 1773,-216 1889,-216 1889,-252"/>
<text text-anchor="middle" x="1831" y="-230.3" font-family="Courier,monospace" font-size="14.00">version: int</text>
</g>
<!-- 0x55558e34a9f0&#45;&gt;0x55558e34a9f0_version: int -->
<g id="edge16" class="edge">
<title>0x55558e34a9f0&#45;&gt;0x55558e34a9f0_version: int</title>
<path fill="none" stroke="black" d="M1459.16,-298.39C1529.07,-290.03 1650.09,-274.22 1763.12,-252.07"/>
<polygon fill="black" stroke="black" points="1763.85,-255.49 1772.98,-250.11 1762.49,-248.62 1763.85,-255.49"/>
</g>
<!-- 0x55558e34a9f0_permission: byte -->
<g id="node18" class="node">
<title>0x55558e34a9f0_permission: byte</title>
<polygon fill="none" stroke="black" points="2056.5,-252 1907.5,-252 1907.5,-216 2056.5,-216 2056.5,-252"/>
<text text-anchor="middle" x="1982" y="-230.3" font-family="Courier,monospace" font-size="14.00">permission: byte</text>
</g>
<!-- 0x55558e34a9f0&#45;&gt;0x55558e34a9f0_permission: byte -->
<g id="edge17" class="edge">
<title>0x55558e34a9f0&#45;&gt;0x55558e34a9f0_permission: byte</title>
<path fill="none" stroke="black" d="M1459,-300.58C1550.07,-293.26 1732.31,-277.04 1897.08,-252.05"/>
<polygon fill="black" stroke="black" points="1898.05,-255.45 1907.41,-250.47 1897,-248.53 1898.05,-255.45"/>
</g>
<!-- 0x55558e34a9f0_supervisor: option&lt;User&gt; -->
<g id="node19" class="node">
<title>0x55558e34a9f0_supervisor: option&lt;User&gt;</title>
<polygon fill="none" stroke="black" points="2289.5,-252 2074.5,-252 2074.5,-216 2289.5,-216 2289.5,-252"/>
<text text-anchor="middle" x="2182" y="-230.3" font-family="Courier,monospace" font-size="14.00">supervisor: option&lt;User&gt;</text>
</g>
<!-- 0x55558e34a9f0&#45;&gt;0x55558e34a9f0_supervisor: option&lt;User&gt; -->
<g id="edge18" class="edge">
<title>0x55558e34a9f0&#45;&gt;0x55558e34a9f0_supervisor: option&lt;User&gt;</title>
<path fill="none" stroke="black" d="M1459.3,-301.62C1573.31,-294.73 1833.98,-277.61 2064.05,-252.06"/>
<polygon fill="black" stroke="black" points="2064.74,-255.51 2074.29,-250.92 2063.97,-248.55 2064.74,-255.51"/>
</g>
<!-- 0x55558e34a9f0_address: Address -->
<g id="node20" class="node">
<title>0x55558e34a9f0_address: Address</title>
<polygon fill="none" stroke="black" points="2456.5,-252 2307.5,-252 2307.5,-216 2456.5,-216 2456.5,-252"/>
<text text-anchor="middle" x="2382" y="-230.3" font-family="Courier,monospace" font-size="14.00">address: Address</text>
</g>
<!-- 0x55558e34a9f0&#45;&gt;0x55558e34a9f0_address: Address -->
<g id="edge19" class="edge">
<title>0x55558e34a9f0&#45;&gt;0x55558e34a9f0_address: Address</title>
<path fill="none" stroke="black" d="M1459.25,-304.39C1601.06,-302.3 1975.6,-293.12 2297.45,-251.95"/>
<polygon fill="black" stroke="black" points="2297.97,-255.41 2307.44,-250.66 2297.07,-248.47 2297.97,-255.41"/>
</g>
<!-- 0x55558e33f3e0 -->
<g id="node22" class="node">
<title>0x55558e33f3e0</title>
<polygon fill="none" stroke="black" points="2598,-252 2474,-252 2474,-216 2598,-216 2598,-252"/>
<text text-anchor="middle" x="2536" y="-230.3" font-family="Courier,monospace" font-size="14.00">FUNCTION: a()</text>
</g>
<!-- 0x55558e34ad00&#45;&gt;0x55558e33f3e0 -->
<g id="edge21" class="edge">
<title>0x55558e34ad00&#45;&gt;0x55558e33f3e0</title>
<path fill="none" stroke="black" d="M2643.26,-287.88C2624.18,-278.47 2600.32,-266.71 2579.95,-256.67"/>
<polygon fill="black" stroke="black" points="2581.39,-253.47 2570.87,-252.19 2578.29,-259.75 2581.39,-253.47"/>
</g>
<!-- 0x55558e34ab00 -->
<g id="node23" class="node">
<title>0x55558e34ab00</title>
<polygon fill="none" stroke="black" points="2740,-252 2616,-252 2616,-216 2740,-216 2740,-252"/>
<text text-anchor="middle" x="2678" y="-230.3" font-family="Courier,monospace" font-size="14.00">FUNCTION: b()</text>
</g>
<!-- 0x55558e34ad00&#45;&gt;0x55558e34ab00 -->
<g id="edge22" class="edge">
<title>0x55558e34ad00&#45;&gt;0x55558e34ab00</title>
<path fill="none" stroke="black" d="M2678,-287.7C2678,-279.98 2678,-270.71 2678,-262.11"/>
<polygon fill="black" stroke="black" points="2681.5,-262.1 2678,-252.1 2674.5,-262.1 2681.5,-262.1"/>
</g>
<!-- 0x55558e34abe0 -->
<g id="node24" class="node">
<title>0x55558e34abe0</title>
<polygon fill="none" stroke="black" points="2890,-252 2758,-252 2758,-216 2890,-216 2890,-252"/>
<text text-anchor="middle" x="2824" y="-230.3" font-family="Courier,monospace" font-size="14.00">PROCEDURE: c()</text>
</g>
<!-- 0x55558e34ad00&#45;&gt;0x55558e34abe0 -->
<g id="edge23" class="edge">
<title>0x55558e34ad00&#45;&gt;0x55558e34abe0</title>
<path fill="none" stroke="black" d="M2713.72,-287.88C2733.5,-278.39 2758.27,-266.51 2779.33,-256.42"/>
<polygon fill="black" stroke="black" points="2780.9,-259.55 2788.4,-252.07 2777.87,-253.24 2780.9,-259.55"/>
</g>
<!-- 0x55558e34ac50 -->
<g id="node25" class="node">
<title>0x55558e34ac50</title>
<polygon fill="none" stroke="black" points="3040,-252 2908,-252 2908,-216 3040,-216 3040,-252"/>
<text text-anchor="middle" x="2974" y="-230.3" font-family="Courier,monospace" font-size="14.00">PROCEDURE: d()</text>
</g>
<!-- 0x55558e34ad00&#45;&gt;0x55558e34ac50 -->
<g id="edge24" class="edge">
<title>0x55558e34ad00&#45;&gt;0x55558e34ac50</title>
<path fill="none" stroke="black" d="M2731.6,-292.32C2778.09,-281.33 2845.89,-265.3 2897.98,-252.98"/>
<polygon fill="black" stroke="black" points="2898.92,-256.35 2907.84,-250.65 2897.31,-249.54 2898.92,-256.35"/>
</g>
<!-- 0x55558e348950 -->
<g id="node27" class="node">
<title>0x55558e348950</title>
<polygon fill="none" stroke="black" points="3157.5,-252 3058.5,-252 3058.5,-216 3157.5,-216 3157.5,-252"/>
<text text-anchor="middle" x="3108" y="-230.3" font-family="Courier,monospace" font-size="14.00">ATTR: user</text>
</g>
<!-- 0x55558e34b440&#45;&gt;0x55558e348950 -->
<g id="edge26" class="edge">
<title>0x55558e34b440&#45;&gt;0x55558e348950</title>
<path fill="none" stroke="black" d="M3108,-287.7C3108,-279.98 3108,-270.71 3108,-262.11"/>
<polygon fill="black" stroke="black" points="3111.5,-262.1 3108,-252.1 3104.5,-262.1 3111.5,-262.1"/>
</g>
<!-- 0x55558e349050 -->
<g id="node35" class="node">
<title>0x55558e349050</title>
<polygon fill="none" stroke="black" points="3242,-252 3176,-252 3176,-216 3242,-216 3242,-252"/>
<text text-anchor="middle" x="3209" y="-230.3" font-family="Courier,monospace" font-size="14.00">RETURN</text>
</g>
<!-- 0x55558e34b440&#45;&gt;0x55558e349050 -->
<g id="edge34" class="edge">
<title>0x55558e34b440&#45;&gt;0x55558e349050</title>
<path fill="none" stroke="black" d="M3132.71,-287.88C3145.67,-278.89 3161.73,-267.76 3175.77,-258.03"/>
<polygon fill="black" stroke="black" points="3177.97,-260.76 3184.2,-252.19 3173.98,-255.01 3177.97,-260.76"/>
</g>
<!-- 0x55558e34ae10 -->
<g id="node28" class="node">
<title>0x55558e34ae10</title>
<polygon fill="none" stroke="black" points="3149.5,-180 3066.5,-180 3066.5,-144 3149.5,-144 3149.5,-180"/>
<text text-anchor="middle" x="3108" y="-158.3" font-family="Courier,monospace" font-size="14.00">new User</text>
</g>
<!-- 0x55558e348950&#45;&gt;0x55558e34ae10 -->
<g id="edge27" class="edge">
<title>0x55558e348950&#45;&gt;0x55558e34ae10</title>
<path fill="none" stroke="black" d="M3108,-215.7C3108,-207.98 3108,-198.71 3108,-190.11"/>
<polygon fill="black" stroke="black" points="3111.5,-190.1 3108,-180.1 3104.5,-190.1 3111.5,-190.1"/>
</g>
<!-- 0x55558e34ae10_id -->
<g id="node29" class="node">
<title>0x55558e34ae10_id</title>
<polygon fill="none" stroke="black" points="3055,-108 3001,-108 3001,-72 3055,-72 3055,-108"/>
<text text-anchor="middle" x="3028" y="-86.3" font-family="Courier,monospace" font-size="14.00">id</text>
</g>
<!-- 0x55558e34ae10&#45;&gt;0x55558e34ae10_id -->
<g id="edge28" class="edge">
<title>0x55558e34ae10&#45;&gt;0x55558e34ae10_id</title>
<path fill="none" stroke="black" d="M3088.22,-143.7C3078.25,-134.97 3065.99,-124.24 3055.14,-114.75"/>
<polygon fill="black" stroke="black" points="3057.38,-112.06 3047.55,-108.1 3052.77,-117.32 3057.38,-112.06"/>
</g>
<!-- 0x55558e34ae10_age -->
<g id="node31" class="node">
<title>0x55558e34ae10_age</title>
<polygon fill="none" stroke="black" points="3135,-108 3081,-108 3081,-72 3135,-72 3135,-108"/>
<text text-anchor="middle" x="3108" y="-86.3" font-family="Courier,monospace" font-size="14.00">age</text>
</g>
<!-- 0x55558e34ae10&#45;&gt;0x55558e34ae10_age -->
<g id="edge30" class="edge">
<title>0x55558e34ae10&#45;&gt;0x55558e34ae10_age</title>
<path fill="none" stroke="black" d="M3108,-143.7C3108,-135.98 3108,-126.71 3108,-118.11"/>
<polygon fill="black" stroke="black" points="3111.5,-118.1 3108,-108.1 3104.5,-118.1 3111.5,-118.1"/>
</g>
<!-- 0x55558e34ae10_gender -->
<g id="node33" class="node">
<title>0x55558e34ae10_gender</title>
<polygon fill="none" stroke="black" points="3234,-108 3168,-108 3168,-72 3234,-72 3234,-108"/>
<text text-anchor="middle" x="3201" y="-86.3" font-family="Courier,monospace" font-size="14.00">gender</text>
</g>
<!-- 0x55558e34ae10&#45;&gt;0x55558e34ae10_gender -->
<g id="edge32" class="edge">
<title>0x55558e34ae10&#45;&gt;0x55558e34ae10_gender</title>
<path fill="none" stroke="black" d="M3130.99,-143.7C3142.81,-134.8 3157.39,-123.82 3170.18,-114.2"/>
<polygon fill="black" stroke="black" points="3172.39,-116.91 3178.28,-108.1 3168.18,-111.32 3172.39,-116.91"/>
</g>
<!-- 0x55558e348900 -->
<g id="node30" class="node">
<title>0x55558e348900</title>
<polygon fill="none" stroke="black" points="3053,-36 2987,-36 2987,0 3053,0 3053,-36"/>
<text text-anchor="middle" x="3020" y="-14.3" font-family="Courier,monospace" font-size="14.00">INT: 0</text>
</g>
<!-- 0x55558e34ae10_id&#45;&gt;0x55558e348900 -->
<g id="edge29" class="edge">
<title>0x55558e34ae10_id&#45;&gt;0x55558e348900</title>
<path fill="none" stroke="black" d="M3026.02,-71.7C3025.14,-63.98 3024.08,-54.71 3023.1,-46.11"/>
<polygon fill="black" stroke="black" points="3026.57,-45.64 3021.95,-36.1 3019.61,-46.44 3026.57,-45.64"/>
</g>
<!-- 0x55558e349150 -->
<g id="node32" class="node">
<title>0x55558e349150</title>
<polygon fill="none" stroke="black" points="3145,-36 3071,-36 3071,0 3145,0 3145,-36"/>
<text text-anchor="middle" x="3108" y="-14.3" font-family="Courier,monospace" font-size="14.00">INT: 20</text>
</g>
<!-- 0x55558e34ae10_age&#45;&gt;0x55558e349150 -->
<g id="edge31" class="edge">
<title>0x55558e34ae10_age&#45;&gt;0x55558e349150</title>
<path fill="none" stroke="black" d="M3108,-71.7C3108,-63.98 3108,-54.71 3108,-46.11"/>
<polygon fill="black" stroke="black" points="3111.5,-46.1 3108,-36.1 3104.5,-46.1 3111.5,-46.1"/>
</g>
<!-- 0x55558e34a680 -->
<g id="node34" class="node">
<title>0x55558e34a680</title>
<polygon fill="none" stroke="black" points="3270.5,-36 3163.5,-36 3163.5,0 3270.5,0 3270.5,-36"/>
<text text-anchor="middle" x="3217" y="-14.3" font-family="Courier,monospace" font-size="14.00">CHAR: &#39;109&#39;</text>
</g>
<!-- 0x55558e34ae10_gender&#45;&gt;0x55558e34a680 -->
<g id="edge33" class="edge">
<title>0x55558e34ae10_gender&#45;&gt;0x55558e34a680</title>
<path fill="none" stroke="black" d="M3204.96,-71.7C3206.72,-63.98 3208.84,-54.71 3210.8,-46.11"/>
<polygon fill="black" stroke="black" points="3214.27,-46.63 3213.09,-36.1 3207.45,-45.07 3214.27,-46.63"/>
</g>
<!-- 0x55558e34ae80 -->
<g id="node36" class="node">
<title>0x55558e34ae80</title>
<polygon fill="none" stroke="black" points="3242,-180 3176,-180 3176,-144 3242,-144 3242,-180"/>
<text text-anchor="middle" x="3209" y="-158.3" font-family="Courier,monospace" font-size="14.00">INT: 0</text>
</g>
<!-- 0x55558e349050&#45;&gt;0x55558e34ae80 -->
<g id="edge35" class="edge">
<title>0x55558e349050&#45;&gt;0x55558e34ae80</title>
<path fill="none" stroke="black" d="M3209,-215.7C3209,-207.98 3209,-198.71 3209,-190.11"/>
<polygon fill="black" stroke="black" points="3212.5,-190.1 3209,-180.1 3205.5,-190.1 3212.5,-190.1"/>
</g>
</g>
</svg>
