<?xml version="1.0" encoding="UTF-8" standalone="no"?>
<!DOCTYPE svg PUBLIC "-//W3C//DTD SVG 1.1//EN"
 "http://www.w3.org/Graphics/SVG/1.1/DTD/svg11.dtd">
<!-- Generated by graphviz version 2.43.0 (0)
 -->
<!-- Title: AST Pages: 1 -->
<svg width="830pt" height="404pt"
 viewBox="0.00 0.00 830.00 404.00" xmlns="http://www.w3.org/2000/svg" xmlns:xlink="http://www.w3.org/1999/xlink">
<g id="graph0" class="graph" transform="scale(1 1) rotate(0) translate(4 400)">
<title>AST</title>
<polygon fill="white" stroke="transparent" points="-4,4 -4,-400 826,-400 826,4 -4,4"/>
<!-- 0x55555bfe56f0 -->
<g id="node1" class="node">
<title>0x55555bfe56f0</title>
<polygon fill="none" stroke="black" points="408.5,-396 334.5,-396 334.5,-360 408.5,-360 408.5,-396"/>
<text text-anchor="middle" x="371.5" y="-374.3" font-family="Courier,monospace" font-size="14.00">PROGRAM</text>
</g>
<!-- 0x55555bfe6310 -->
<g id="node2" class="node">
<title>0x55555bfe6310</title>
<polygon fill="none" stroke="black" points="565.5,-324 177.5,-324 177.5,-288 565.5,-288 565.5,-324"/>
<text text-anchor="middle" x="371.5" y="-302.3" font-family="Courier,monospace" font-size="14.00">PROCEDURE: swap(array: int[], a: int, b: int)</text>
</g>
<!-- 0x55555bfe56f0&#45;&gt;0x55555bfe6310 -->
<g id="edge1" class="edge">
<title>0x55555bfe56f0&#45;&gt;0x55555bfe6310</title>
<path fill="none" stroke="black" d="M371.5,-359.7C371.5,-351.98 371.5,-342.71 371.5,-334.11"/>
<polygon fill="black" stroke="black" points="375,-334.1 371.5,-324.1 368,-334.1 375,-334.1"/>
</g>
<!-- 0x55555bfe5a60 -->
<g id="node3" class="node">
<title>0x55555bfe5a60</title>
<polygon fill="none" stroke="black" points="254,-252 155,-252 155,-216 254,-216 254,-252"/>
<text text-anchor="middle" x="204.5" y="-230.3" font-family="Courier,monospace" font-size="14.00">ATTR: temp</text>
</g>
<!-- 0x55555bfe6310&#45;&gt;0x55555bfe5a60 -->
<g id="edge2" class="edge">
<title>0x55555bfe6310&#45;&gt;0x55555bfe5a60</title>
<path fill="none" stroke="black" d="M330.65,-287.88C307.72,-278.26 278.92,-266.19 254.63,-256.01"/>
<polygon fill="black" stroke="black" points="255.8,-252.71 245.22,-252.07 253.09,-259.16 255.8,-252.71"/>
</g>
<!-- 0x55555bfe5f10 -->
<g id="node9" class="node">
<title>0x55555bfe5f10</title>
<polygon fill="none" stroke="black" points="404.5,-252 338.5,-252 338.5,-216 404.5,-216 404.5,-252"/>
<text text-anchor="middle" x="371.5" y="-230.3" font-family="Courier,monospace" font-size="14.00">ASSIGN</text>
</g>
<!-- 0x55555bfe6310&#45;&gt;0x55555bfe5f10 -->
<g id="edge8" class="edge">
<title>0x55555bfe6310&#45;&gt;0x55555bfe5f10</title>
<path fill="none" stroke="black" d="M371.5,-287.7C371.5,-279.98 371.5,-270.71 371.5,-262.11"/>
<polygon fill="black" stroke="black" points="375,-262.1 371.5,-252.1 368,-262.1 375,-262.1"/>
</g>
<!-- 0x55555bfe62a0 -->
<g id="node20" class="node">
<title>0x55555bfe62a0</title>
<polygon fill="none" stroke="black" points="658.5,-252 592.5,-252 592.5,-216 658.5,-216 658.5,-252"/>
<text text-anchor="middle" x="625.5" y="-230.3" font-family="Courier,monospace" font-size="14.00">ASSIGN</text>
</g>
<!-- 0x55555bfe6310&#45;&gt;0x55555bfe62a0 -->
<g id="edge19" class="edge">
<title>0x55555bfe6310&#45;&gt;0x55555bfe62a0</title>
<path fill="none" stroke="black" d="M433.31,-287.97C479.57,-275.22 541.66,-258.1 582.59,-246.83"/>
<polygon fill="black" stroke="black" points="583.55,-250.19 592.26,-244.16 581.69,-243.44 583.55,-250.19"/>
</g>
<!-- 0x55555bfe59f0 -->
<g id="node4" class="node">
<title>0x55555bfe59f0</title>
<polygon fill="none" stroke="black" points="175.5,-180 101.5,-180 101.5,-144 175.5,-144 175.5,-180"/>
<text text-anchor="middle" x="138.5" y="-158.3" font-family="Courier,monospace" font-size="14.00">BRACKET</text>
</g>
<!-- 0x55555bfe5a60&#45;&gt;0x55555bfe59f0 -->
<g id="edge3" class="edge">
<title>0x55555bfe5a60&#45;&gt;0x55555bfe59f0</title>
<path fill="none" stroke="black" d="M188.19,-215.7C180.19,-207.22 170.43,-196.86 161.68,-187.58"/>
<polygon fill="black" stroke="black" points="164.03,-184.98 154.63,-180.1 158.94,-189.78 164.03,-184.98"/>
</g>
<!-- 0x55555bfe5760 -->
<g id="node5" class="node">
<title>0x55555bfe5760</title>
<polygon fill="none" stroke="black" points="83.5,-108 17.5,-108 17.5,-72 83.5,-72 83.5,-108"/>
<text text-anchor="middle" x="50.5" y="-86.3" font-family="Courier,monospace" font-size="14.00">ACCESS</text>
</g>
<!-- 0x55555bfe59f0&#45;&gt;0x55555bfe5760 -->
<g id="edge4" class="edge">
<title>0x55555bfe59f0&#45;&gt;0x55555bfe5760</title>
<path fill="none" stroke="black" d="M116.75,-143.7C105.66,-134.88 92.03,-124.03 80.01,-114.47"/>
<polygon fill="black" stroke="black" points="82.01,-111.59 72,-108.1 77.65,-117.07 82.01,-111.59"/>
</g>
<!-- 0x55555bfe57d0 -->
<g id="node7" class="node">
<title>0x55555bfe57d0</title>
<polygon fill="none" stroke="black" points="171.5,-108 105.5,-108 105.5,-72 171.5,-72 171.5,-108"/>
<text text-anchor="middle" x="138.5" y="-86.3" font-family="Courier,monospace" font-size="14.00">ACCESS</text>
</g>
<!-- 0x55555bfe59f0&#45;&gt;0x55555bfe57d0 -->
<g id="edge6" class="edge">
<title>0x55555bfe59f0&#45;&gt;0x55555bfe57d0</title>
<path fill="none" stroke="black" d="M138.5,-143.7C138.5,-135.98 138.5,-126.71 138.5,-118.11"/>
<polygon fill="black" stroke="black" points="142,-118.1 138.5,-108.1 135,-118.1 142,-118.1"/>
</g>
<!-- 0x55555bfe5930 -->
<g id="node6" class="node">
<title>0x55555bfe5930</title>
<polygon fill="none" stroke="black" points="91,-36 0,-36 0,0 91,0 91,-36"/>
<text text-anchor="middle" x="45.5" y="-14.3" font-family="Courier,monospace" font-size="14.00">ID: array</text>
</g>
<!-- 0x55555bfe5760&#45;&gt;0x55555bfe5930 -->
<g id="edge5" class="edge">
<title>0x55555bfe5760&#45;&gt;0x55555bfe5930</title>
<path fill="none" stroke="black" d="M49.26,-71.7C48.71,-63.98 48.05,-54.71 47.44,-46.11"/>
<polygon fill="black" stroke="black" points="50.93,-45.83 46.72,-36.1 43.94,-46.33 50.93,-45.83"/>
</g>
<!-- 0x55555bfe5990 -->
<g id="node8" class="node">
<title>0x55555bfe5990</title>
<polygon fill="none" stroke="black" points="167.5,-36 109.5,-36 109.5,0 167.5,0 167.5,-36"/>
<text text-anchor="middle" x="138.5" y="-14.3" font-family="Courier,monospace" font-size="14.00">ID: a</text>
</g>
<!-- 0x55555bfe57d0&#45;&gt;0x55555bfe5990 -->
<g id="edge7" class="edge">
<title>0x55555bfe57d0&#45;&gt;0x55555bfe5990</title>
<path fill="none" stroke="black" d="M138.5,-71.7C138.5,-63.98 138.5,-54.71 138.5,-46.11"/>
<polygon fill="black" stroke="black" points="142,-46.1 138.5,-36.1 135,-46.1 142,-46.1"/>
</g>
<!-- 0x55555bfe5c90 -->
<g id="node10" class="node">
<title>0x55555bfe5c90</title>
<polygon fill="none" stroke="black" points="361.5,-180 287.5,-180 287.5,-144 361.5,-144 361.5,-180"/>
<text text-anchor="middle" x="324.5" y="-158.3" font-family="Courier,monospace" font-size="14.00">BRACKET</text>
</g>
<!-- 0x55555bfe5f10&#45;&gt;0x55555bfe5c90 -->
<g id="edge9" class="edge">
<title>0x55555bfe5f10&#45;&gt;0x55555bfe5c90</title>
<path fill="none" stroke="black" d="M359.88,-215.7C354.36,-207.47 347.65,-197.48 341.57,-188.42"/>
<polygon fill="black" stroke="black" points="344.46,-186.46 335.98,-180.1 338.65,-190.36 344.46,-186.46"/>
</g>
<!-- 0x55555bfe5ea0 -->
<g id="node15" class="node">
<title>0x55555bfe5ea0</title>
<polygon fill="none" stroke="black" points="454.5,-180 380.5,-180 380.5,-144 454.5,-144 454.5,-180"/>
<text text-anchor="middle" x="417.5" y="-158.3" font-family="Courier,monospace" font-size="14.00">BRACKET</text>
</g>
<!-- 0x55555bfe5f10&#45;&gt;0x55555bfe5ea0 -->
<g id="edge14" class="edge">
<title>0x55555bfe5f10&#45;&gt;0x55555bfe5ea0</title>
<path fill="none" stroke="black" d="M382.87,-215.7C388.22,-207.56 394.7,-197.69 400.61,-188.7"/>
<polygon fill="black" stroke="black" points="403.69,-190.38 406.26,-180.1 397.84,-186.54 403.69,-190.38"/>
</g>
<!-- 0x55555bfe5b50 -->
<g id="node11" class="node">
<title>0x55555bfe5b50</title>
<polygon fill="none" stroke="black" points="268.5,-108 202.5,-108 202.5,-72 268.5,-72 268.5,-108"/>
<text text-anchor="middle" x="235.5" y="-86.3" font-family="Courier,monospace" font-size="14.00">ACCESS</text>
</g>
<!-- 0x55555bfe5c90&#45;&gt;0x55555bfe5b50 -->
<g id="edge10" class="edge">
<title>0x55555bfe5c90&#45;&gt;0x55555bfe5b50</title>
<path fill="none" stroke="black" d="M302.5,-143.7C291.29,-134.88 277.5,-124.03 265.35,-114.47"/>
<polygon fill="black" stroke="black" points="267.27,-111.54 257.25,-108.1 262.94,-117.04 267.27,-111.54"/>
</g>
<!-- 0x55555bfe5c20 -->
<g id="node13" class="node">
<title>0x55555bfe5c20</title>
<polygon fill="none" stroke="black" points="357.5,-108 291.5,-108 291.5,-72 357.5,-72 357.5,-108"/>
<text text-anchor="middle" x="324.5" y="-86.3" font-family="Courier,monospace" font-size="14.00">ACCESS</text>
</g>
<!-- 0x55555bfe5c90&#45;&gt;0x55555bfe5c20 -->
<g id="edge12" class="edge">
<title>0x55555bfe5c90&#45;&gt;0x55555bfe5c20</title>
<path fill="none" stroke="black" d="M324.5,-143.7C324.5,-135.98 324.5,-126.71 324.5,-118.11"/>
<polygon fill="black" stroke="black" points="328,-118.1 324.5,-108.1 321,-118.1 328,-118.1"/>
</g>
<!-- 0x55555bfe5af0 -->
<g id="node12" class="node">
<title>0x55555bfe5af0</title>
<polygon fill="none" stroke="black" points="277,-36 186,-36 186,0 277,0 277,-36"/>
<text text-anchor="middle" x="231.5" y="-14.3" font-family="Courier,monospace" font-size="14.00">ID: array</text>
</g>
<!-- 0x55555bfe5b50&#45;&gt;0x55555bfe5af0 -->
<g id="edge11" class="edge">
<title>0x55555bfe5b50&#45;&gt;0x55555bfe5af0</title>
<path fill="none" stroke="black" d="M234.51,-71.7C234.07,-63.98 233.54,-54.71 233.05,-46.11"/>
<polygon fill="black" stroke="black" points="236.54,-45.89 232.48,-36.1 229.55,-46.29 236.54,-45.89"/>
</g>
<!-- 0x55555bfe5bc0 -->
<g id="node14" class="node">
<title>0x55555bfe5bc0</title>
<polygon fill="none" stroke="black" points="353.5,-36 295.5,-36 295.5,0 353.5,0 353.5,-36"/>
<text text-anchor="middle" x="324.5" y="-14.3" font-family="Courier,monospace" font-size="14.00">ID: a</text>
</g>
<!-- 0x55555bfe5c20&#45;&gt;0x55555bfe5bc0 -->
<g id="edge13" class="edge">
<title>0x55555bfe5c20&#45;&gt;0x55555bfe5bc0</title>
<path fill="none" stroke="black" d="M324.5,-71.7C324.5,-63.98 324.5,-54.71 324.5,-46.11"/>
<polygon fill="black" stroke="black" points="328,-46.1 324.5,-36.1 321,-46.1 328,-46.1"/>
</g>
<!-- 0x55555bfe5d60 -->
<g id="node16" class="node">
<title>0x55555bfe5d60</title>
<polygon fill="none" stroke="black" points="450.5,-108 384.5,-108 384.5,-72 450.5,-72 450.5,-108"/>
<text text-anchor="middle" x="417.5" y="-86.3" font-family="Courier,monospace" font-size="14.00">ACCESS</text>
</g>
<!-- 0x55555bfe5ea0&#45;&gt;0x55555bfe5d60 -->
<g id="edge15" class="edge">
<title>0x55555bfe5ea0&#45;&gt;0x55555bfe5d60</title>
<path fill="none" stroke="black" d="M417.5,-143.7C417.5,-135.98 417.5,-126.71 417.5,-118.11"/>
<polygon fill="black" stroke="black" points="421,-118.1 417.5,-108.1 414,-118.1 421,-118.1"/>
</g>
<!-- 0x55555bfe5e30 -->
<g id="node18" class="node">
<title>0x55555bfe5e30</title>
<polygon fill="none" stroke="black" points="539.5,-108 473.5,-108 473.5,-72 539.5,-72 539.5,-108"/>
<text text-anchor="middle" x="506.5" y="-86.3" font-family="Courier,monospace" font-size="14.00">ACCESS</text>
</g>
<!-- 0x55555bfe5ea0&#45;&gt;0x55555bfe5e30 -->
<g id="edge17" class="edge">
<title>0x55555bfe5ea0&#45;&gt;0x55555bfe5e30</title>
<path fill="none" stroke="black" d="M439.5,-143.7C450.71,-134.88 464.5,-124.03 476.65,-114.47"/>
<polygon fill="black" stroke="black" points="479.06,-117.04 484.75,-108.1 474.73,-111.54 479.06,-117.04"/>
</g>
<!-- 0x55555bfe5d00 -->
<g id="node17" class="node">
<title>0x55555bfe5d00</title>
<polygon fill="none" stroke="black" points="463,-36 372,-36 372,0 463,0 463,-36"/>
<text text-anchor="middle" x="417.5" y="-14.3" font-family="Courier,monospace" font-size="14.00">ID: array</text>
</g>
<!-- 0x55555bfe5d60&#45;&gt;0x55555bfe5d00 -->
<g id="edge16" class="edge">
<title>0x55555bfe5d60&#45;&gt;0x55555bfe5d00</title>
<path fill="none" stroke="black" d="M417.5,-71.7C417.5,-63.98 417.5,-54.71 417.5,-46.11"/>
<polygon fill="black" stroke="black" points="421,-46.1 417.5,-36.1 414,-46.1 421,-46.1"/>
</g>
<!-- 0x55555bfe5dd0 -->
<g id="node19" class="node">
<title>0x55555bfe5dd0</title>
<polygon fill="none" stroke="black" points="539.5,-36 481.5,-36 481.5,0 539.5,0 539.5,-36"/>
<text text-anchor="middle" x="510.5" y="-14.3" font-family="Courier,monospace" font-size="14.00">ID: b</text>
</g>
<!-- 0x55555bfe5e30&#45;&gt;0x55555bfe5dd0 -->
<g id="edge18" class="edge">
<title>0x55555bfe5e30&#45;&gt;0x55555bfe5dd0</title>
<path fill="none" stroke="black" d="M507.49,-71.7C507.93,-63.98 508.46,-54.71 508.95,-46.11"/>
<polygon fill="black" stroke="black" points="512.45,-46.29 509.52,-36.1 505.46,-45.89 512.45,-46.29"/>
</g>
<!-- 0x55555bfe6160 -->
<g id="node21" class="node">
<title>0x55555bfe6160</title>
<polygon fill="none" stroke="black" points="662.5,-180 588.5,-180 588.5,-144 662.5,-144 662.5,-180"/>
<text text-anchor="middle" x="625.5" y="-158.3" font-family="Courier,monospace" font-size="14.00">BRACKET</text>
</g>
<!-- 0x55555bfe62a0&#45;&gt;0x55555bfe6160 -->
<g id="edge20" class="edge">
<title>0x55555bfe62a0&#45;&gt;0x55555bfe6160</title>
<path fill="none" stroke="black" d="M625.5,-215.7C625.5,-207.98 625.5,-198.71 625.5,-190.11"/>
<polygon fill="black" stroke="black" points="629,-190.1 625.5,-180.1 622,-190.1 629,-190.1"/>
</g>
<!-- 0x55555bfe6230 -->
<g id="node26" class="node">
<title>0x55555bfe6230</title>
<polygon fill="none" stroke="black" points="790.5,-180 724.5,-180 724.5,-144 790.5,-144 790.5,-180"/>
<text text-anchor="middle" x="757.5" y="-158.3" font-family="Courier,monospace" font-size="14.00">ACCESS</text>
</g>
<!-- 0x55555bfe62a0&#45;&gt;0x55555bfe6230 -->
<g id="edge25" class="edge">
<title>0x55555bfe62a0&#45;&gt;0x55555bfe6230</title>
<path fill="none" stroke="black" d="M657.79,-215.88C675.37,-206.55 697.31,-194.92 716.13,-184.94"/>
<polygon fill="black" stroke="black" points="717.89,-187.97 725.09,-180.19 714.61,-181.78 717.89,-187.97"/>
</g>
<!-- 0x55555bfe6020 -->
<g id="node22" class="node">
<title>0x55555bfe6020</title>
<polygon fill="none" stroke="black" points="636.5,-108 570.5,-108 570.5,-72 636.5,-72 636.5,-108"/>
<text text-anchor="middle" x="603.5" y="-86.3" font-family="Courier,monospace" font-size="14.00">ACCESS</text>
</g>
<!-- 0x55555bfe6160&#45;&gt;0x55555bfe6020 -->
<g id="edge21" class="edge">
<title>0x55555bfe6160&#45;&gt;0x55555bfe6020</title>
<path fill="none" stroke="black" d="M620.06,-143.7C617.61,-135.9 614.66,-126.51 611.93,-117.83"/>
<polygon fill="black" stroke="black" points="615.21,-116.59 608.88,-108.1 608.54,-118.69 615.21,-116.59"/>
</g>
<!-- 0x55555bfe60f0 -->
<g id="node24" class="node">
<title>0x55555bfe60f0</title>
<polygon fill="none" stroke="black" points="720.5,-108 654.5,-108 654.5,-72 720.5,-72 720.5,-108"/>
<text text-anchor="middle" x="687.5" y="-86.3" font-family="Courier,monospace" font-size="14.00">ACCESS</text>
</g>
<!-- 0x55555bfe6160&#45;&gt;0x55555bfe60f0 -->
<g id="edge23" class="edge">
<title>0x55555bfe6160&#45;&gt;0x55555bfe60f0</title>
<path fill="none" stroke="black" d="M640.83,-143.7C648.26,-135.3 657.32,-125.07 665.48,-115.86"/>
<polygon fill="black" stroke="black" points="668.34,-117.91 672.35,-108.1 663.1,-113.27 668.34,-117.91"/>
</g>
<!-- 0x55555bfe5fc0 -->
<g id="node23" class="node">
<title>0x55555bfe5fc0</title>
<polygon fill="none" stroke="black" points="649,-36 558,-36 558,0 649,0 649,-36"/>
<text text-anchor="middle" x="603.5" y="-14.3" font-family="Courier,monospace" font-size="14.00">ID: array</text>
</g>
<!-- 0x55555bfe6020&#45;&gt;0x55555bfe5fc0 -->
<g id="edge22" class="edge">
<title>0x55555bfe6020&#45;&gt;0x55555bfe5fc0</title>
<path fill="none" stroke="black" d="M603.5,-71.7C603.5,-63.98 603.5,-54.71 603.5,-46.11"/>
<polygon fill="black" stroke="black" points="607,-46.1 603.5,-36.1 600,-46.1 607,-46.1"/>
</g>
<!-- 0x55555bfe6090 -->
<g id="node25" class="node">
<title>0x55555bfe6090</title>
<polygon fill="none" stroke="black" points="725.5,-36 667.5,-36 667.5,0 725.5,0 725.5,-36"/>
<text text-anchor="middle" x="696.5" y="-14.3" font-family="Courier,monospace" font-size="14.00">ID: b</text>
</g>
<!-- 0x55555bfe60f0&#45;&gt;0x55555bfe6090 -->
<g id="edge24" class="edge">
<title>0x55555bfe60f0&#45;&gt;0x55555bfe6090</title>
<path fill="none" stroke="black" d="M689.72,-71.7C690.72,-63.98 691.91,-54.71 693.01,-46.11"/>
<polygon fill="black" stroke="black" points="696.5,-46.47 694.3,-36.1 689.55,-45.58 696.5,-46.47"/>
</g>
<!-- 0x55555bfe61d0 -->
<g id="node27" class="node">
<title>0x55555bfe61d0</title>
<polygon fill="none" stroke="black" points="822,-108 739,-108 739,-72 822,-72 822,-108"/>
<text text-anchor="middle" x="780.5" y="-86.3" font-family="Courier,monospace" font-size="14.00">ID: temp</text>
</g>
<!-- 0x55555bfe6230&#45;&gt;0x55555bfe61d0 -->
<g id="edge26" class="edge">
<title>0x55555bfe6230&#45;&gt;0x55555bfe61d0</title>
<path fill="none" stroke="black" d="M763.19,-143.7C765.75,-135.9 768.83,-126.51 771.68,-117.83"/>
<polygon fill="black" stroke="black" points="775.08,-118.7 774.88,-108.1 768.43,-116.51 775.08,-118.7"/>
</g>
</g>
</svg>
