<?xml version="1.0" encoding="UTF-8" standalone="no"?>
<!DOCTYPE svg PUBLIC "-//W3C//DTD SVG 1.1//EN"
 "http://www.w3.org/Graphics/SVG/1.1/DTD/svg11.dtd">
<!-- Generated by graphviz version 2.43.0 (0)
 -->
<!-- Title: AST Pages: 1 -->
<svg width="256pt" height="188pt"
 viewBox="0.00 0.00 256.00 188.00" xmlns="http://www.w3.org/2000/svg" xmlns:xlink="http://www.w3.org/1999/xlink">
<g id="graph0" class="graph" transform="scale(1 1) rotate(0) translate(4 184)">
<title>AST</title>
<polygon fill="white" stroke="transparent" points="-4,4 -4,-184 252,-184 252,4 -4,4"/>
<!-- 0x555563fe28b0 -->
<g id="node1" class="node">
<title>0x555563fe28b0</title>
<polygon fill="none" stroke="black" points="155,-180 81,-180 81,-144 155,-144 155,-180"/>
<text text-anchor="middle" x="118" y="-158.3" font-family="Courier,monospace" font-size="14.00">PROGRAM</text>
</g>
<!-- 0x555563fe29e0 -->
<g id="node2" class="node">
<title>0x555563fe29e0</title>
<polygon fill="none" stroke="black" points="171.5,-108 64.5,-108 64.5,-72 171.5,-72 171.5,-108"/>
<text text-anchor="middle" x="118" y="-86.3" font-family="Courier,monospace" font-size="14.00">ENUM: State</text>
</g>
<!-- 0x555563fe28b0&#45;&gt;0x555563fe29e0 -->
<g id="edge1" class="edge">
<title>0x555563fe28b0&#45;&gt;0x555563fe29e0</title>
<path fill="none" stroke="black" d="M118,-143.7C118,-135.98 118,-126.71 118,-118.11"/>
<polygon fill="black" stroke="black" points="121.5,-118.1 118,-108.1 114.5,-118.1 121.5,-118.1"/>
</g>
<!-- 0x555563fe29e0_OPEN -->
<g id="node3" class="node">
<title>0x555563fe29e0_OPEN</title>
<polygon fill="none" stroke="black" points="54,-36 0,-36 0,0 54,0 54,-36"/>
<text text-anchor="middle" x="27" y="-14.3" font-family="Courier,monospace" font-size="14.00">OPEN</text>
</g>
<!-- 0x555563fe29e0&#45;&gt;0x555563fe29e0_OPEN -->
<g id="edge2" class="edge">
<title>0x555563fe29e0&#45;&gt;0x555563fe29e0_OPEN</title>
<path fill="none" stroke="black" d="M95.51,-71.7C84.04,-62.88 69.94,-52.03 57.52,-42.47"/>
<polygon fill="black" stroke="black" points="59.3,-39.43 49.24,-36.1 55.03,-44.98 59.3,-39.43"/>
</g>
<!-- 0x555563fe29e0_HALF_OPEN -->
<g id="node4" class="node">
<title>0x555563fe29e0_HALF_OPEN</title>
<polygon fill="none" stroke="black" points="163.5,-36 72.5,-36 72.5,0 163.5,0 163.5,-36"/>
<text text-anchor="middle" x="118" y="-14.3" font-family="Courier,monospace" font-size="14.00">HALF_OPEN</text>
</g>
<!-- 0x555563fe29e0&#45;&gt;0x555563fe29e0_HALF_OPEN -->
<g id="edge3" class="edge">
<title>0x555563fe29e0&#45;&gt;0x555563fe29e0_HALF_OPEN</title>
<path fill="none" stroke="black" d="M118,-71.7C118,-63.98 118,-54.71 118,-46.11"/>
<polygon fill="black" stroke="black" points="121.5,-46.1 118,-36.1 114.5,-46.1 121.5,-46.1"/>
</g>
<!-- 0x555563fe29e0_CLOSED -->
<g id="node5" class="node">
<title>0x555563fe29e0_CLOSED</title>
<polygon fill="none" stroke="black" points="248,-36 182,-36 182,0 248,0 248,-36"/>
<text text-anchor="middle" x="215" y="-14.3" font-family="Courier,monospace" font-size="14.00">CLOSED</text>
</g>
<!-- 0x555563fe29e0&#45;&gt;0x555563fe29e0_CLOSED -->
<g id="edge4" class="edge">
<title>0x555563fe29e0&#45;&gt;0x555563fe29e0_CLOSED</title>
<path fill="none" stroke="black" d="M141.98,-71.7C154.31,-62.8 169.52,-51.82 182.85,-42.2"/>
<polygon fill="black" stroke="black" points="185.24,-44.79 191.3,-36.1 181.14,-39.12 185.24,-44.79"/>
</g>
</g>
</svg>
